<?xml version="1.0" encoding="UTF-8"?>
<svg width="1300px" height="929px" viewBox="0 0 1300 929" version="1.1" xmlns="http://www.w3.org/2000/svg" xmlns:xlink="http://www.w3.org/1999/xlink">
    <!-- Generator: Sketch 45.2 (43514) - http://www.bohemiancoding.com/sketch -->
    <title>Background_Pattern_NoFade@1.5x</title>
    <desc>Created with Sketch.</desc>
    <defs>
        <rect id="path-1" x="0" y="0" width="1300" height="929"></rect>
    </defs>
    <g id="Assets" stroke="none" stroke-width="1" fill="none" fill-rule="evenodd">
        <g transform="translate(-2373.000000, -377.000000)" id="Background_Pattern_NoFade">
            <g transform="translate(2373.000000, 377.000000)">
                <mask id="mask-2" fill="white">
                    <use xlink:href="#path-1"></use>
                </mask>
                <g id="Mask"></g>
                <path d="M516.150693,425.025529 L516.150693,426.370358 L516.150693,584.843089 C514.564447,592.299042 507.949711,597.895406 500.024342,597.895406 C490.91442,597.895406 483.531484,590.508381 483.531484,581.396691 L483.531484,440.669245 L483.531484,439.324416 L483.531484,404.555389 C483.531484,395.442232 490.91442,388.056674 500.024342,388.056674 C507.949711,388.056674 514.564447,393.651571 516.150693,401.107524 L516.150693,425.025529 Z M450.545766,439.324416 L450.545766,440.669245 L450.545766,446.236278 C449.412523,454.242188 442.55296,460.406109 434.236161,460.406109 C425.683331,460.406109 418.653708,453.894615 417.826866,445.557264 C417.772622,446.099889 417.743302,446.649846 417.743302,447.207136 L417.743302,380.478997 C417.743302,379.685592 417.667068,378.912719 417.560048,378.148645 L417.560048,282.59395 C417.667068,281.831342 417.743302,281.057002 417.743302,280.265064 L417.743302,270.365835 C417.743302,261.252677 425.126239,253.867119 434.236161,253.867119 C442.551494,253.867119 449.411057,260.029573 450.545766,268.035483 L450.545766,439.324416 Z M384.757584,544.237183 C384.649098,544.998324 384.57433,545.772664 384.57433,546.566069 L384.57433,615.127398 C384.57433,624.239089 377.189927,631.626114 368.081471,631.626114 C361.04745,631.626114 355.05871,627.214724 352.688136,621.011207 L352.688136,496.764878 L352.688136,495.42005 L352.688136,428.367802 C355.05871,422.165752 361.04745,417.754362 368.081471,417.754362 C377.189927,417.754362 384.57433,425.13992 384.57433,434.253078 L384.57433,446.352136 C384.57433,447.144074 384.649098,447.918414 384.757584,448.681021 L384.757584,544.237183 Z M319.702418,495.42005 L319.702418,496.764878 L319.702418,655.23761 C318.116172,662.693563 311.501436,668.289927 303.576067,668.289927 C294.466145,668.289927 287.083208,660.902902 287.083208,651.791211 L287.083208,511.063765 L287.083208,509.718937 L287.083208,474.94991 C287.083208,465.836753 294.466145,458.451194 303.576067,458.451194 C311.501436,458.451194 318.116172,464.046092 319.702418,471.502045 L319.702418,495.42005 Z M254.097491,509.718937 L254.097491,511.063765 L254.097491,516.630799 C252.964248,524.636709 246.104685,530.800629 237.787886,530.800629 C229.235056,530.800629 222.205433,524.289136 221.378591,515.951785 C221.324347,516.494409 221.295027,517.044367 221.295027,517.601657 L221.295027,450.873517 C221.295027,441.761827 213.910624,434.374802 204.802168,434.374802 C195.692246,434.374802 188.309309,441.761827 188.309309,450.873517 L188.309309,474.960176 C188.278522,475.362011 188.247736,475.76238 188.247736,476.171548 L188.247736,544.732878 C188.247736,553.844569 180.863333,561.231594 171.754877,561.231594 C164.720856,561.231594 158.732115,556.820204 156.361542,550.616687 L156.361542,426.370358 L156.361542,425.025529 L156.361542,357.973282 C158.732115,351.771231 164.720856,347.359841 171.754877,347.359841 C180.863333,347.359841 188.247736,354.7454 188.247736,363.858557 L188.247736,375.957615 C188.247736,385.069306 195.632138,392.456331 204.740594,392.456331 C213.849051,392.456331 221.233453,385.069306 221.233453,375.957615 L221.233453,351.86949 C221.262774,351.467655 221.295027,351.067286 221.295027,350.659585 L221.295027,340.760355 C221.295027,331.647198 228.677963,324.261639 237.787886,324.261639 C246.103219,324.261639 252.962782,330.424093 254.097491,338.430003 L254.097491,509.718937 Z M123.375824,425.025529 L123.375824,426.370358 L123.375824,584.843089 C121.791043,592.299042 115.174841,597.895406 107.249473,597.895406 C98.1410166,597.895406 90.7566139,590.508381 90.7566139,581.396691 L90.7566139,440.669245 L90.7566139,439.324416 L90.7566139,404.555389 C90.7566139,395.442232 98.1410166,388.056674 107.249473,388.056674 C115.174841,388.056674 121.791043,393.651571 123.375824,401.107524 L123.375824,425.025529 Z M57.7708961,439.324416 L57.7708961,440.669245 L57.7708961,446.236278 C56.6376534,454.242188 49.7780902,460.406109 41.4612912,460.406109 C32.9099271,460.406109 25.8788381,453.894615 25.0519961,445.557264 C24.9992189,446.099889 24.9684322,446.649846 24.9684322,447.207136 L24.9684322,380.478997 C24.9684322,379.685592 24.8936646,378.912719 24.7851783,378.148645 L24.7851783,282.59395 C24.8936646,281.831342 24.9684322,281.057002 24.9684322,280.265064 L24.9684322,270.365835 C24.9684322,261.252677 32.3528349,253.867119 41.4612912,253.867119 C49.7780902,253.867119 56.6376534,260.029573 57.7708961,268.035483 L57.7708961,439.324416 Z M-8.01728559,544.237183 C-8.12577195,544.998324 -8.20053958,545.772664 -8.20053958,546.566069 L-8.20053958,615.127398 C-8.20053958,624.239089 -15.5849423,631.626114 -24.6933985,631.626114 C-31.7274196,631.626114 -37.7161599,627.214724 -40.0867335,621.011207 L-40.0867335,496.764878 L-40.0867335,495.42005 L-40.0867335,428.367802 C-37.7161599,422.165752 -31.7274196,417.754362 -24.6933985,417.754362 C-15.5849423,417.754362 -8.20053958,425.13992 -8.20053958,434.253078 L-8.20053958,446.352136 C-8.20053958,447.144074 -8.12577195,447.918414 -8.01728559,448.681021 L-8.01728559,544.237183 Z M-73.0724513,495.42005 L-73.0724513,496.764878 L-73.0724513,655.23761 C-74.6572318,662.693563 -81.2734338,668.289927 -89.1988023,668.289927 C-98.3072585,668.289927 -105.691661,660.902902 -105.691661,651.791211 L-105.691661,511.063765 L-105.691661,509.718937 L-105.691661,474.94991 C-105.691661,465.836753 -98.3072585,458.451194 -89.1988023,458.451194 C-81.2734338,458.451194 -74.6572318,464.046092 -73.0724513,471.502045 L-73.0724513,495.42005 Z M597.515464,392.456331 C606.62392,392.456331 614.008323,385.069306 614.008323,375.957615 L614.008323,189.705447 C614.008323,180.592289 606.62392,173.206731 597.515464,173.206731 C588.405542,173.206731 581.022605,180.592289 581.022605,189.705447 L581.022605,258.266776 C581.022605,267.378467 573.638202,274.765492 564.529746,274.765492 C557.495725,274.765492 551.506985,270.352636 549.136411,264.150585 L549.136411,138.559428 C549.136411,129.446271 541.752009,122.060712 532.643552,122.060712 C523.53363,122.060712 516.150693,129.446271 516.150693,138.559428 L516.150693,298.376988 C514.564447,305.832941 507.949711,311.429305 500.024342,311.429305 C490.91442,311.429305 483.531484,304.04228 483.531484,294.930589 L483.531484,152.858315 C483.531484,143.745157 476.147081,136.359599 467.038625,136.359599 C457.928702,136.359599 450.545766,143.745157 450.545766,152.858315 L450.545766,159.76871 C449.412523,167.776087 442.55296,173.940007 434.236161,173.940007 C425.683331,173.940007 418.653708,167.427047 417.826866,159.091163 C417.772622,159.633787 417.743302,160.183745 417.743302,160.741035 L417.743302,94.0128953 C417.743302,84.899738 410.358899,77.5141796 401.250443,77.5141796 C392.140521,77.5141796 384.757584,84.899738 384.757584,94.0128953 L384.757584,257.769615 C384.649098,258.532222 384.57433,259.306562 384.57433,260.099967 L384.57433,328.661297 C384.57433,337.772988 377.189927,345.160013 368.081471,345.160013 C361.04745,345.160013 355.05871,340.747156 352.688136,334.545106 L352.688136,208.953948 C352.688136,199.840791 345.303733,192.455233 336.195277,192.455233 C327.085355,192.455233 319.702418,199.840791 319.702418,208.953948 L319.702418,368.771508 C318.116172,376.227461 311.501436,381.823825 303.576067,381.823825 C294.466145,381.823825 287.083208,374.4368 287.083208,365.32511 L287.083208,223.252835 C287.083208,214.139678 279.698806,206.75412 270.590349,206.75412 C261.480427,206.75412 254.097491,214.139678 254.097491,223.252835 L254.097491,230.163231 C252.964248,238.170607 246.104685,244.334528 237.787886,244.334528 C229.235056,244.334528 222.205433,237.821568 221.378591,229.485683 C221.324347,230.028308 221.295027,230.578265 221.295027,231.135555 L221.295027,164.407416 C221.295027,155.294259 213.910624,147.9087 204.802168,147.9087 C195.692246,147.9087 188.309309,155.294259 188.309309,164.407416 L188.309309,188.494074 C188.278522,188.89591 188.247736,189.296278 188.247736,189.705447 L188.247736,258.266776 C188.247736,267.378467 180.863333,274.765492 171.754877,274.765492 C164.720856,274.765492 158.732115,270.352636 156.361542,264.150585 L156.361542,138.559428 C156.361542,129.446271 148.977139,122.060712 139.868683,122.060712 C130.760226,122.060712 123.375824,129.446271 123.375824,138.559428 L123.375824,298.376988 C121.791043,305.832941 115.174841,311.429305 107.249473,311.429305 C98.1410166,311.429305 90.7566139,304.04228 90.7566139,294.930589 L90.7566139,152.858315 C90.7566139,143.745157 83.3722112,136.359599 74.263755,136.359599 C65.1552988,136.359599 57.7708961,143.745157 57.7708961,152.858315 L57.7708961,159.76871 C56.6376534,167.776087 49.7780902,173.940007 41.4612912,173.940007 C32.9099271,173.940007 25.8788381,167.427047 25.0519961,159.091163 C24.9992189,159.633787 24.9684322,160.183745 24.9684322,160.741035 L24.9684322,94.0128953 C24.9684322,84.899738 17.5840295,77.5141796 8.47557333,77.5141796 C-0.632882889,77.5141796 -8.01728559,84.899738 -8.01728559,94.0128953 L-8.01728559,257.769615 C-8.12577195,258.532222 -8.20053958,259.306562 -8.20053958,260.099967 L-8.20053958,328.661297 C-8.20053958,337.772988 -15.5849423,345.160013 -24.6933985,345.160013 C-31.7274196,345.160013 -37.7161599,340.747156 -40.0867335,334.545106 L-40.0867335,208.953948 C-40.0867335,199.840791 -47.4711362,192.455233 -56.5795924,192.455233 C-65.6880486,192.455233 -73.0724513,199.840791 -73.0724513,208.953948 L-73.0724513,368.771508 C-74.6572318,376.227461 -81.2734338,381.823825 -89.1988023,381.823825 C-98.3072585,381.823825 -105.691661,374.4368 -105.691661,365.32511 L-105.691661,223.252835 C-105.691661,214.139678 -113.076064,206.75412 -122.18452,206.75412 C-131.292976,206.75412 -138.677379,214.139678 -138.677379,223.252835 L-138.677379,230.163231 C-139.810622,238.170607 -146.670185,244.334528 -154.986984,244.334528 C-163.538348,244.334528 -170.567971,237.821568 -171.396279,229.485683 C-171.450522,230.028308 -171.479843,230.578265 -171.479843,231.135555 L-171.479843,164.407416 C-171.479843,155.294259 -178.864246,147.9087 -187.972702,147.9087 C-197.081158,147.9087 -204.465561,155.294259 -204.465561,164.407416 L-204.465561,350.659585 C-204.465561,359.771275 -197.081158,367.1583 -187.972702,367.1583 C-178.864246,367.1583 -171.479843,359.771275 -171.479843,350.659585 L-171.479843,340.760355 C-171.479843,331.647198 -164.09544,324.261639 -154.986984,324.261639 C-146.671651,324.261639 -139.812088,330.424093 -138.677379,338.430003 L-138.677379,509.718937 L-138.677379,511.063765 L-138.677379,516.630799 C-139.810622,524.636709 -146.670185,530.800629 -154.986984,530.800629 C-163.538348,530.800629 -170.567971,524.289136 -171.396279,515.951785 C-171.450522,516.494409 -171.479843,517.044367 -171.479843,517.601657 L-171.479843,450.873517 C-171.479843,441.761827 -178.864246,434.374802 -187.972702,434.374802 C-197.081158,434.374802 -204.465561,441.761827 -204.465561,450.873517 L-204.465561,637.125686 C-204.465561,646.237377 -197.081158,653.624402 -187.972702,653.624402 C-178.864246,653.624402 -171.479843,646.237377 -171.479843,637.125686 L-171.479843,627.226457 C-171.479843,618.114766 -164.09544,610.727741 -154.986984,610.727741 C-146.671651,610.727741 -139.812088,616.891661 -138.677379,624.897571 L-138.677379,797.529867 C-138.677379,806.641558 -131.292976,814.028583 -122.18452,814.028583 C-113.076064,814.028583 -105.691661,806.641558 -105.691661,797.529867 L-105.691661,761.416011 C-105.691661,752.304321 -98.3072585,744.917296 -89.1988023,744.917296 C-81.2734338,744.917296 -74.6572318,750.512193 -73.0724513,757.968146 L-73.0724513,783.23098 C-73.0724513,792.342671 -65.6880486,799.729696 -56.5795924,799.729696 C-47.4711362,799.729696 -40.0867335,792.342671 -40.0867335,783.23098 L-40.0867335,714.833904 C-37.7161599,708.631853 -31.7274196,704.220463 -24.6933985,704.220463 C-15.5849423,704.220463 -8.20053958,711.607488 -8.20053958,720.719179 L-8.20053958,732.818237 C-8.20053958,741.929928 -0.816136877,749.316953 8.29231934,749.316953 C17.4007756,749.316953 24.7851783,741.929928 24.7851783,732.818237 L24.7851783,569.060051 C24.8936646,568.297444 24.9684322,567.524571 24.9684322,566.731166 L24.9684322,556.831936 C24.9684322,547.720245 32.3528349,540.33322 41.4612912,540.33322 C49.7780902,540.33322 56.6376534,546.497141 57.7708961,554.503051 L57.7708961,727.135346 C57.7708961,736.247037 65.1552988,743.634062 74.263755,743.634062 C83.3722112,743.634062 90.7566139,736.247037 90.7566139,727.135346 L90.7566139,691.021491 C90.7566139,681.9098 98.1410166,674.522775 107.249473,674.522775 C115.174841,674.522775 121.791043,680.117673 123.375824,687.573626 L123.375824,712.836459 C123.375824,721.94815 130.760226,729.335175 139.868683,729.335175 C148.977139,729.335175 156.361542,721.94815 156.361542,712.836459 L156.361542,644.439384 C158.732115,638.237333 164.720856,633.825943 171.754877,633.825943 C180.863333,633.825943 188.247736,641.212968 188.247736,650.324659 L188.247736,662.423717 C188.247736,671.535408 195.632138,678.922433 204.740594,678.922433 C213.849051,678.922433 221.233453,671.535408 221.233453,662.423717 L221.233453,638.335592 C221.262774,637.933757 221.295027,637.534854 221.295027,637.125686 L221.295027,627.226457 C221.295027,618.114766 228.677963,610.727741 237.787886,610.727741 C246.103219,610.727741 252.962782,616.891661 254.097491,624.897571 L254.097491,797.529867 C254.097491,806.641558 261.480427,814.028583 270.590349,814.028583 C279.698806,814.028583 287.083208,806.641558 287.083208,797.529867 L287.083208,761.416011 C287.083208,752.304321 294.466145,744.917296 303.576067,744.917296 C311.501436,744.917296 318.116172,750.512193 319.702418,757.968146 L319.702418,783.23098 C319.702418,792.342671 327.085355,799.729696 336.195277,799.729696 C345.303733,799.729696 352.688136,792.342671 352.688136,783.23098 L352.688136,714.833904 C355.05871,708.631853 361.04745,704.220463 368.081471,704.220463 C377.189927,704.220463 384.57433,711.607488 384.57433,720.719179 L384.57433,732.818237 C384.57433,741.929928 391.957267,749.316953 401.067189,749.316953 C410.175645,749.316953 417.560048,741.929928 417.560048,732.818237 L417.560048,569.060051 C417.667068,568.297444 417.743302,567.524571 417.743302,566.731166 L417.743302,556.831936 C417.743302,547.720245 425.126239,540.33322 434.236161,540.33322 C442.551494,540.33322 449.411057,546.497141 450.545766,554.503051 L450.545766,727.135346 C450.545766,736.247037 457.928702,743.634062 467.038625,743.634062 C476.147081,743.634062 483.531484,736.247037 483.531484,727.135346 L483.531484,691.021491 C483.531484,681.9098 490.91442,674.522775 500.024342,674.522775 C507.949711,674.522775 514.564447,680.117673 516.150693,687.573626 L516.150693,712.836459 C516.150693,721.94815 523.53363,729.335175 532.643552,729.335175 C541.752009,729.335175 549.136411,721.94815 549.136411,712.836459 L549.136411,644.439384 C551.506985,638.237333 557.495725,633.825943 564.529746,633.825943 C573.638202,633.825943 581.022605,641.212968 581.022605,650.324659 L581.022605,662.423717 C581.022605,671.535408 588.405542,678.922433 597.515464,678.922433 C606.62392,678.922433 614.008323,671.535408 614.008323,662.423717 L614.008323,476.171548 C614.008323,467.059857 606.62392,459.672832 597.515464,459.672832 C588.405542,459.672832 581.022605,467.059857 581.022605,476.171548 L581.022605,544.732878 C581.022605,553.844569 573.638202,561.231594 564.529746,561.231594 C557.495725,561.231594 551.506985,556.820204 549.136411,550.616687 L549.136411,426.370358 L549.136411,425.025529 L549.136411,357.973282 C551.506985,351.771231 557.495725,347.359841 564.529746,347.359841 C573.638202,347.359841 581.022605,354.7454 581.022605,363.858557 L581.022605,375.957615 C581.022605,385.069306 588.405542,392.456331 597.515464,392.456331 L597.515464,392.456331 Z" id="Mask" fill-opacity="0.300000012" fill="#FFFFFF" opacity="0.300000012" mask="url(#mask-2)" transform="translate(204.771381, 445.771381) rotate(-45.000000) translate(-204.771381, -445.771381) "></path>
                <path d="M1331.15069,590.025529 L1331.15069,591.370358 L1331.15069,749.843089 C1329.56445,757.299042 1322.94971,762.895406 1315.02434,762.895406 C1305.91442,762.895406 1298.53148,755.508381 1298.53148,746.396691 L1298.53148,605.669245 L1298.53148,604.324416 L1298.53148,569.555389 C1298.53148,560.442232 1305.91442,553.056674 1315.02434,553.056674 C1322.94971,553.056674 1329.56445,558.651571 1331.15069,566.107524 L1331.15069,590.025529 Z M1265.54577,604.324416 L1265.54577,605.669245 L1265.54577,611.236278 C1264.41252,619.242188 1257.55296,625.406109 1249.23616,625.406109 C1240.68333,625.406109 1233.65371,618.894615 1232.82687,610.557264 C1232.77262,611.099889 1232.7433,611.649846 1232.7433,612.207136 L1232.7433,545.478997 C1232.7433,544.685592 1232.66707,543.912719 1232.56005,543.148645 L1232.56005,447.59395 C1232.66707,446.831342 1232.7433,446.057002 1232.7433,445.265064 L1232.7433,435.365835 C1232.7433,426.252677 1240.12624,418.867119 1249.23616,418.867119 C1257.55149,418.867119 1264.41106,425.029573 1265.54577,433.035483 L1265.54577,604.324416 Z M1199.75758,709.237183 C1199.6491,709.998324 1199.57433,710.772664 1199.57433,711.566069 L1199.57433,780.127398 C1199.57433,789.239089 1192.18993,796.626114 1183.08147,796.626114 C1176.04745,796.626114 1170.05871,792.214724 1167.68814,786.011207 L1167.68814,661.764878 L1167.68814,660.42005 L1167.68814,593.367802 C1170.05871,587.165752 1176.04745,582.754362 1183.08147,582.754362 C1192.18993,582.754362 1199.57433,590.13992 1199.57433,599.253078 L1199.57433,611.352136 C1199.57433,612.144074 1199.6491,612.918414 1199.75758,613.681021 L1199.75758,709.237183 Z M1134.70242,660.42005 L1134.70242,661.764878 L1134.70242,820.23761 C1133.11617,827.693563 1126.50144,833.289927 1118.57607,833.289927 C1109.46615,833.289927 1102.08321,825.902902 1102.08321,816.791211 L1102.08321,676.063765 L1102.08321,674.718937 L1102.08321,639.94991 C1102.08321,630.836753 1109.46615,623.451194 1118.57607,623.451194 C1126.50144,623.451194 1133.11617,629.046092 1134.70242,636.502045 L1134.70242,660.42005 Z M1069.09749,674.718937 L1069.09749,676.063765 L1069.09749,681.630799 C1067.96425,689.636709 1061.10468,695.800629 1052.78789,695.800629 C1044.23506,695.800629 1037.20543,689.289136 1036.37859,680.951785 C1036.32435,681.494409 1036.29503,682.044367 1036.29503,682.601657 L1036.29503,615.873517 C1036.29503,606.761827 1028.91062,599.374802 1019.80217,599.374802 C1010.69225,599.374802 1003.30931,606.761827 1003.30931,615.873517 L1003.30931,639.960176 C1003.27852,640.362011 1003.24774,640.76238 1003.24774,641.171548 L1003.24774,709.732878 C1003.24774,718.844569 995.863333,726.231594 986.754877,726.231594 C979.720856,726.231594 973.732115,721.820204 971.361542,715.616687 L971.361542,591.370358 L971.361542,590.025529 L971.361542,522.973282 C973.732115,516.771231 979.720856,512.359841 986.754877,512.359841 C995.863333,512.359841 1003.24774,519.7454 1003.24774,528.858557 L1003.24774,540.957615 C1003.24774,550.069306 1010.63214,557.456331 1019.74059,557.456331 C1028.84905,557.456331 1036.23345,550.069306 1036.23345,540.957615 L1036.23345,516.86949 C1036.26277,516.467655 1036.29503,516.067286 1036.29503,515.659585 L1036.29503,505.760355 C1036.29503,496.647198 1043.67796,489.261639 1052.78789,489.261639 C1061.10322,489.261639 1067.96278,495.424093 1069.09749,503.430003 L1069.09749,674.718937 Z M938.375824,590.025529 L938.375824,591.370358 L938.375824,749.843089 C936.791043,757.299042 930.174841,762.895406 922.249473,762.895406 C913.141017,762.895406 905.756614,755.508381 905.756614,746.396691 L905.756614,605.669245 L905.756614,604.324416 L905.756614,569.555389 C905.756614,560.442232 913.141017,553.056674 922.249473,553.056674 C930.174841,553.056674 936.791043,558.651571 938.375824,566.107524 L938.375824,590.025529 Z M872.770896,604.324416 L872.770896,605.669245 L872.770896,611.236278 C871.637653,619.242188 864.77809,625.406109 856.461291,625.406109 C847.909927,625.406109 840.878838,618.894615 840.051996,610.557264 C839.999219,611.099889 839.968432,611.649846 839.968432,612.207136 L839.968432,545.478997 C839.968432,544.685592 839.893665,543.912719 839.785178,543.148645 L839.785178,447.59395 C839.893665,446.831342 839.968432,446.057002 839.968432,445.265064 L839.968432,435.365835 C839.968432,426.252677 847.352835,418.867119 856.461291,418.867119 C864.77809,418.867119 871.637653,425.029573 872.770896,433.035483 L872.770896,604.324416 Z M806.982714,709.237183 C806.874228,709.998324 806.79946,710.772664 806.79946,711.566069 L806.79946,780.127398 C806.79946,789.239089 799.415058,796.626114 790.306602,796.626114 C783.27258,796.626114 777.28384,792.214724 774.913267,786.011207 L774.913267,661.764878 L774.913267,660.42005 L774.913267,593.367802 C777.28384,587.165752 783.27258,582.754362 790.306602,582.754362 C799.415058,582.754362 806.79946,590.13992 806.79946,599.253078 L806.79946,611.352136 C806.79946,612.144074 806.874228,612.918414 806.982714,613.681021 L806.982714,709.237183 Z M741.927549,660.42005 L741.927549,661.764878 L741.927549,820.23761 C740.342768,827.693563 733.726566,833.289927 725.801198,833.289927 C716.692742,833.289927 709.308339,825.902902 709.308339,816.791211 L709.308339,676.063765 L709.308339,674.718937 L709.308339,639.94991 C709.308339,630.836753 716.692742,623.451194 725.801198,623.451194 C733.726566,623.451194 740.342768,629.046092 741.927549,636.502045 L741.927549,660.42005 Z M1412.51546,557.456331 C1421.62392,557.456331 1429.00832,550.069306 1429.00832,540.957615 L1429.00832,354.705447 C1429.00832,345.592289 1421.62392,338.206731 1412.51546,338.206731 C1403.40554,338.206731 1396.02261,345.592289 1396.02261,354.705447 L1396.02261,423.266776 C1396.02261,432.378467 1388.6382,439.765492 1379.52975,439.765492 C1372.49573,439.765492 1366.50698,435.352636 1364.13641,429.150585 L1364.13641,303.559428 C1364.13641,294.446271 1356.75201,287.060712 1347.64355,287.060712 C1338.53363,287.060712 1331.15069,294.446271 1331.15069,303.559428 L1331.15069,463.376988 C1329.56445,470.832941 1322.94971,476.429305 1315.02434,476.429305 C1305.91442,476.429305 1298.53148,469.04228 1298.53148,459.930589 L1298.53148,317.858315 C1298.53148,308.745157 1291.14708,301.359599 1282.03862,301.359599 C1272.9287,301.359599 1265.54577,308.745157 1265.54577,317.858315 L1265.54577,324.76871 C1264.41252,332.776087 1257.55296,338.940007 1249.23616,338.940007 C1240.68333,338.940007 1233.65371,332.427047 1232.82687,324.091163 C1232.77262,324.633787 1232.7433,325.183745 1232.7433,325.741035 L1232.7433,259.012895 C1232.7433,249.899738 1225.3589,242.51418 1216.25044,242.51418 C1207.14052,242.51418 1199.75758,249.899738 1199.75758,259.012895 L1199.75758,422.769615 C1199.6491,423.532222 1199.57433,424.306562 1199.57433,425.099967 L1199.57433,493.661297 C1199.57433,502.772988 1192.18993,510.160013 1183.08147,510.160013 C1176.04745,510.160013 1170.05871,505.747156 1167.68814,499.545106 L1167.68814,373.953948 C1167.68814,364.840791 1160.30373,357.455233 1151.19528,357.455233 C1142.08535,357.455233 1134.70242,364.840791 1134.70242,373.953948 L1134.70242,533.771508 C1133.11617,541.227461 1126.50144,546.823825 1118.57607,546.823825 C1109.46615,546.823825 1102.08321,539.4368 1102.08321,530.32511 L1102.08321,388.252835 C1102.08321,379.139678 1094.69881,371.75412 1085.59035,371.75412 C1076.48043,371.75412 1069.09749,379.139678 1069.09749,388.252835 L1069.09749,395.163231 C1067.96425,403.170607 1061.10468,409.334528 1052.78789,409.334528 C1044.23506,409.334528 1037.20543,402.821568 1036.37859,394.485683 C1036.32435,395.028308 1036.29503,395.578265 1036.29503,396.135555 L1036.29503,329.407416 C1036.29503,320.294259 1028.91062,312.9087 1019.80217,312.9087 C1010.69225,312.9087 1003.30931,320.294259 1003.30931,329.407416 L1003.30931,353.494074 C1003.27852,353.89591 1003.24774,354.296278 1003.24774,354.705447 L1003.24774,423.266776 C1003.24774,432.378467 995.863333,439.765492 986.754877,439.765492 C979.720856,439.765492 973.732115,435.352636 971.361542,429.150585 L971.361542,303.559428 C971.361542,294.446271 963.977139,287.060712 954.868683,287.060712 C945.760226,287.060712 938.375824,294.446271 938.375824,303.559428 L938.375824,463.376988 C936.791043,470.832941 930.174841,476.429305 922.249473,476.429305 C913.141017,476.429305 905.756614,469.04228 905.756614,459.930589 L905.756614,317.858315 C905.756614,308.745157 898.372211,301.359599 889.263755,301.359599 C880.155299,301.359599 872.770896,308.745157 872.770896,317.858315 L872.770896,324.76871 C871.637653,332.776087 864.77809,338.940007 856.461291,338.940007 C847.909927,338.940007 840.878838,332.427047 840.051996,324.091163 C839.999219,324.633787 839.968432,325.183745 839.968432,325.741035 L839.968432,259.012895 C839.968432,249.899738 832.58403,242.51418 823.475573,242.51418 C814.367117,242.51418 806.982714,249.899738 806.982714,259.012895 L806.982714,422.769615 C806.874228,423.532222 806.79946,424.306562 806.79946,425.099967 L806.79946,493.661297 C806.79946,502.772988 799.415058,510.160013 790.306602,510.160013 C783.27258,510.160013 777.28384,505.747156 774.913267,499.545106 L774.913267,373.953948 C774.913267,364.840791 767.528864,357.455233 758.420408,357.455233 C749.311951,357.455233 741.927549,364.840791 741.927549,373.953948 L741.927549,533.771508 C740.342768,541.227461 733.726566,546.823825 725.801198,546.823825 C716.692742,546.823825 709.308339,539.4368 709.308339,530.32511 L709.308339,388.252835 C709.308339,379.139678 701.923936,371.75412 692.81548,371.75412 C683.707024,371.75412 676.322621,379.139678 676.322621,388.252835 L676.322621,395.163231 C675.189378,403.170607 668.329815,409.334528 660.013016,409.334528 C651.461652,409.334528 644.432029,402.821568 643.603721,394.485683 C643.549478,395.028308 643.520157,395.578265 643.520157,396.135555 L643.520157,329.407416 C643.520157,320.294259 636.135754,312.9087 627.027298,312.9087 C617.918842,312.9087 610.534439,320.294259 610.534439,329.407416 L610.534439,515.659585 C610.534439,524.771275 617.918842,532.1583 627.027298,532.1583 C636.135754,532.1583 643.520157,524.771275 643.520157,515.659585 L643.520157,505.760355 C643.520157,496.647198 650.90456,489.261639 660.013016,489.261639 C668.328349,489.261639 675.187912,495.424093 676.322621,503.430003 L676.322621,674.718937 L676.322621,676.063765 L676.322621,681.630799 C675.189378,689.636709 668.329815,695.800629 660.013016,695.800629 C651.461652,695.800629 644.432029,689.289136 643.603721,680.951785 C643.549478,681.494409 643.520157,682.044367 643.520157,682.601657 L643.520157,615.873517 C643.520157,606.761827 636.135754,599.374802 627.027298,599.374802 C617.918842,599.374802 610.534439,606.761827 610.534439,615.873517 L610.534439,802.125686 C610.534439,811.237377 617.918842,818.624402 627.027298,818.624402 C636.135754,818.624402 643.520157,811.237377 643.520157,802.125686 L643.520157,792.226457 C643.520157,783.114766 650.90456,775.727741 660.013016,775.727741 C668.328349,775.727741 675.187912,781.891661 676.322621,789.897571 L676.322621,962.529867 C676.322621,971.641558 683.707024,979.028583 692.81548,979.028583 C701.923936,979.028583 709.308339,971.641558 709.308339,962.529867 L709.308339,926.416011 C709.308339,917.304321 716.692742,909.917296 725.801198,909.917296 C733.726566,909.917296 740.342768,915.512193 741.927549,922.968146 L741.927549,948.23098 C741.927549,957.342671 749.311951,964.729696 758.420408,964.729696 C767.528864,964.729696 774.913267,957.342671 774.913267,948.23098 L774.913267,879.833904 C777.28384,873.631853 783.27258,869.220463 790.306602,869.220463 C799.415058,869.220463 806.79946,876.607488 806.79946,885.719179 L806.79946,897.818237 C806.79946,906.929928 814.183863,914.316953 823.292319,914.316953 C832.400776,914.316953 839.785178,906.929928 839.785178,897.818237 L839.785178,734.060051 C839.893665,733.297444 839.968432,732.524571 839.968432,731.731166 L839.968432,721.831936 C839.968432,712.720245 847.352835,705.33322 856.461291,705.33322 C864.77809,705.33322 871.637653,711.497141 872.770896,719.503051 L872.770896,892.135346 C872.770896,901.247037 880.155299,908.634062 889.263755,908.634062 C898.372211,908.634062 905.756614,901.247037 905.756614,892.135346 L905.756614,856.021491 C905.756614,846.9098 913.141017,839.522775 922.249473,839.522775 C930.174841,839.522775 936.791043,845.117673 938.375824,852.573626 L938.375824,877.836459 C938.375824,886.94815 945.760226,894.335175 954.868683,894.335175 C963.977139,894.335175 971.361542,886.94815 971.361542,877.836459 L971.361542,809.439384 C973.732115,803.237333 979.720856,798.825943 986.754877,798.825943 C995.863333,798.825943 1003.24774,806.212968 1003.24774,815.324659 L1003.24774,827.423717 C1003.24774,836.535408 1010.63214,843.922433 1019.74059,843.922433 C1028.84905,843.922433 1036.23345,836.535408 1036.23345,827.423717 L1036.23345,803.335592 C1036.26277,802.933757 1036.29503,802.534854 1036.29503,802.125686 L1036.29503,792.226457 C1036.29503,783.114766 1043.67796,775.727741 1052.78789,775.727741 C1061.10322,775.727741 1067.96278,781.891661 1069.09749,789.897571 L1069.09749,962.529867 C1069.09749,971.641558 1076.48043,979.028583 1085.59035,979.028583 C1094.69881,979.028583 1102.08321,971.641558 1102.08321,962.529867 L1102.08321,926.416011 C1102.08321,917.304321 1109.46615,909.917296 1118.57607,909.917296 C1126.50144,909.917296 1133.11617,915.512193 1134.70242,922.968146 L1134.70242,948.23098 C1134.70242,957.342671 1142.08535,964.729696 1151.19528,964.729696 C1160.30373,964.729696 1167.68814,957.342671 1167.68814,948.23098 L1167.68814,879.833904 C1170.05871,873.631853 1176.04745,869.220463 1183.08147,869.220463 C1192.18993,869.220463 1199.57433,876.607488 1199.57433,885.719179 L1199.57433,897.818237 C1199.57433,906.929928 1206.95727,914.316953 1216.06719,914.316953 C1225.17565,914.316953 1232.56005,906.929928 1232.56005,897.818237 L1232.56005,734.060051 C1232.66707,733.297444 1232.7433,732.524571 1232.7433,731.731166 L1232.7433,721.831936 C1232.7433,712.720245 1240.12624,705.33322 1249.23616,705.33322 C1257.55149,705.33322 1264.41106,711.497141 1265.54577,719.503051 L1265.54577,892.135346 C1265.54577,901.247037 1272.9287,908.634062 1282.03862,908.634062 C1291.14708,908.634062 1298.53148,901.247037 1298.53148,892.135346 L1298.53148,856.021491 C1298.53148,846.9098 1305.91442,839.522775 1315.02434,839.522775 C1322.94971,839.522775 1329.56445,845.117673 1331.15069,852.573626 L1331.15069,877.836459 C1331.15069,886.94815 1338.53363,894.335175 1347.64355,894.335175 C1356.75201,894.335175 1364.13641,886.94815 1364.13641,877.836459 L1364.13641,809.439384 C1366.50698,803.237333 1372.49573,798.825943 1379.52975,798.825943 C1388.6382,798.825943 1396.02261,806.212968 1396.02261,815.324659 L1396.02261,827.423717 C1396.02261,836.535408 1403.40554,843.922433 1412.51546,843.922433 C1421.62392,843.922433 1429.00832,836.535408 1429.00832,827.423717 L1429.00832,641.171548 C1429.00832,632.059857 1421.62392,624.672832 1412.51546,624.672832 C1403.40554,624.672832 1396.02261,632.059857 1396.02261,641.171548 L1396.02261,709.732878 C1396.02261,718.844569 1388.6382,726.231594 1379.52975,726.231594 C1372.49573,726.231594 1366.50698,721.820204 1364.13641,715.616687 L1364.13641,591.370358 L1364.13641,590.025529 L1364.13641,522.973282 C1366.50698,516.771231 1372.49573,512.359841 1379.52975,512.359841 C1388.6382,512.359841 1396.02261,519.7454 1396.02261,528.858557 L1396.02261,540.957615 C1396.02261,550.069306 1403.40554,557.456331 1412.51546,557.456331 L1412.51546,557.456331 Z" id="Mask-Copy" fill-opacity="0.300000012" fill="#FFFFFF" opacity="0.300000012" mask="url(#mask-2)" transform="translate(1019.771381, 610.771381) rotate(-45.000000) translate(-1019.771381, -610.771381) "></path>
                <path d="M1104.15069,-224.974471 L1104.15069,-223.629642 L1104.15069,-65.1569109 C1102.56445,-57.7009579 1095.94971,-52.1045935 1088.02434,-52.1045935 C1078.91442,-52.1045935 1071.53148,-59.4916185 1071.53148,-68.6033093 L1071.53148,-209.330755 L1071.53148,-210.675584 L1071.53148,-245.444611 C1071.53148,-254.557768 1078.91442,-261.943326 1088.02434,-261.943326 C1095.94971,-261.943326 1102.56445,-256.348429 1104.15069,-248.892476 L1104.15069,-224.974471 Z M1038.54577,-210.675584 L1038.54577,-209.330755 L1038.54577,-203.763722 C1037.41252,-195.757812 1030.55296,-189.593891 1022.23616,-189.593891 C1013.68333,-189.593891 1006.65371,-196.105385 1005.82687,-204.442736 C1005.77262,-203.900111 1005.7433,-203.350154 1005.7433,-202.792864 L1005.7433,-269.521003 C1005.7433,-270.314408 1005.66707,-271.087281 1005.56005,-271.851355 L1005.56005,-367.40605 C1005.66707,-368.168658 1005.7433,-368.942998 1005.7433,-369.734936 L1005.7433,-379.634165 C1005.7433,-388.747323 1013.12624,-396.132881 1022.23616,-396.132881 C1030.55149,-396.132881 1037.41106,-389.970427 1038.54577,-381.964517 L1038.54577,-210.675584 Z M972.757584,-105.762817 C972.649098,-105.001676 972.57433,-104.227336 972.57433,-103.433931 L972.57433,-34.8726015 C972.57433,-25.7609108 965.189927,-18.3738858 956.081471,-18.3738858 C949.04745,-18.3738858 943.05871,-22.7852757 940.688136,-28.9887929 L940.688136,-153.235122 L940.688136,-154.57995 L940.688136,-221.632198 C943.05871,-227.834248 949.04745,-232.245638 956.081471,-232.245638 C965.189927,-232.245638 972.57433,-224.86008 972.57433,-215.746922 L972.57433,-203.647864 C972.57433,-202.855926 972.649098,-202.081586 972.757584,-201.318979 L972.757584,-105.762817 Z M907.702418,-154.57995 L907.702418,-153.235122 L907.702418,5.23760963 C906.116172,12.6935626 899.501436,18.289927 891.576067,18.289927 C882.466145,18.289927 875.083208,10.902902 875.083208,1.79121124 L875.083208,-138.936235 L875.083208,-140.281063 L875.083208,-175.05009 C875.083208,-184.163247 882.466145,-191.548806 891.576067,-191.548806 C899.501436,-191.548806 906.116172,-185.953908 907.702418,-178.497955 L907.702418,-154.57995 Z M842.097491,-140.281063 L842.097491,-138.936235 L842.097491,-133.369201 C840.964248,-125.363291 834.104685,-119.199371 825.787886,-119.199371 C817.235056,-119.199371 810.205433,-125.710864 809.378591,-134.048215 C809.324347,-133.505591 809.295027,-132.955633 809.295027,-132.398343 L809.295027,-199.126483 C809.295027,-208.238173 801.910624,-215.625198 792.802168,-215.625198 C783.692246,-215.625198 776.309309,-208.238173 776.309309,-199.126483 L776.309309,-175.039824 C776.278522,-174.637989 776.247736,-174.23762 776.247736,-173.828452 L776.247736,-105.267122 C776.247736,-96.1554313 768.863333,-88.7684063 759.754877,-88.7684063 C752.720856,-88.7684063 746.732115,-93.1797962 744.361542,-99.3833133 L744.361542,-223.629642 L744.361542,-224.974471 L744.361542,-292.026718 C746.732115,-298.228769 752.720856,-302.640159 759.754877,-302.640159 C768.863333,-302.640159 776.247736,-295.2546 776.247736,-286.141443 L776.247736,-274.042385 C776.247736,-264.930694 783.632138,-257.543669 792.740594,-257.543669 C801.849051,-257.543669 809.233453,-264.930694 809.233453,-274.042385 L809.233453,-298.13051 C809.262774,-298.532345 809.295027,-298.932714 809.295027,-299.340415 L809.295027,-309.239645 C809.295027,-318.352802 816.677963,-325.738361 825.787886,-325.738361 C834.103219,-325.738361 840.962782,-319.575907 842.097491,-311.569997 L842.097491,-140.281063 Z M711.375824,-224.974471 L711.375824,-223.629642 L711.375824,-65.1569109 C709.791043,-57.7009579 703.174841,-52.1045935 695.249473,-52.1045935 C686.141017,-52.1045935 678.756614,-59.4916185 678.756614,-68.6033093 L678.756614,-209.330755 L678.756614,-210.675584 L678.756614,-245.444611 C678.756614,-254.557768 686.141017,-261.943326 695.249473,-261.943326 C703.174841,-261.943326 709.791043,-256.348429 711.375824,-248.892476 L711.375824,-224.974471 Z M645.770896,-210.675584 L645.770896,-209.330755 L645.770896,-203.763722 C644.637653,-195.757812 637.77809,-189.593891 629.461291,-189.593891 C620.909927,-189.593891 613.878838,-196.105385 613.051996,-204.442736 C612.999219,-203.900111 612.968432,-203.350154 612.968432,-202.792864 L612.968432,-269.521003 C612.968432,-270.314408 612.893665,-271.087281 612.785178,-271.851355 L612.785178,-367.40605 C612.893665,-368.168658 612.968432,-368.942998 612.968432,-369.734936 L612.968432,-379.634165 C612.968432,-388.747323 620.352835,-396.132881 629.461291,-396.132881 C637.77809,-396.132881 644.637653,-389.970427 645.770896,-381.964517 L645.770896,-210.675584 Z M579.982714,-105.762817 C579.874228,-105.001676 579.79946,-104.227336 579.79946,-103.433931 L579.79946,-34.8726015 C579.79946,-25.7609108 572.415058,-18.3738858 563.306602,-18.3738858 C556.27258,-18.3738858 550.28384,-22.7852757 547.913267,-28.9887929 L547.913267,-153.235122 L547.913267,-154.57995 L547.913267,-221.632198 C550.28384,-227.834248 556.27258,-232.245638 563.306602,-232.245638 C572.415058,-232.245638 579.79946,-224.86008 579.79946,-215.746922 L579.79946,-203.647864 C579.79946,-202.855926 579.874228,-202.081586 579.982714,-201.318979 L579.982714,-105.762817 Z M514.927549,-154.57995 L514.927549,-153.235122 L514.927549,5.23760963 C513.342768,12.6935626 506.726566,18.289927 498.801198,18.289927 C489.692742,18.289927 482.308339,10.902902 482.308339,1.79121124 L482.308339,-138.936235 L482.308339,-140.281063 L482.308339,-175.05009 C482.308339,-184.163247 489.692742,-191.548806 498.801198,-191.548806 C506.726566,-191.548806 513.342768,-185.953908 514.927549,-178.497955 L514.927549,-154.57995 Z M1185.51546,-257.543669 C1194.62392,-257.543669 1202.00832,-264.930694 1202.00832,-274.042385 L1202.00832,-460.294553 C1202.00832,-469.407711 1194.62392,-476.793269 1185.51546,-476.793269 C1176.40554,-476.793269 1169.02261,-469.407711 1169.02261,-460.294553 L1169.02261,-391.733224 C1169.02261,-382.621533 1161.6382,-375.234508 1152.52975,-375.234508 C1145.49573,-375.234508 1139.50698,-379.647364 1137.13641,-385.849415 L1137.13641,-511.440572 C1137.13641,-520.553729 1129.75201,-527.939288 1120.64355,-527.939288 C1111.53363,-527.939288 1104.15069,-520.553729 1104.15069,-511.440572 L1104.15069,-351.623012 C1102.56445,-344.167059 1095.94971,-338.570695 1088.02434,-338.570695 C1078.91442,-338.570695 1071.53148,-345.95772 1071.53148,-355.069411 L1071.53148,-497.141685 C1071.53148,-506.254843 1064.14708,-513.640401 1055.03862,-513.640401 C1045.9287,-513.640401 1038.54577,-506.254843 1038.54577,-497.141685 L1038.54577,-490.23129 C1037.41252,-482.223913 1030.55296,-476.059993 1022.23616,-476.059993 C1013.68333,-476.059993 1006.65371,-482.572953 1005.82687,-490.908837 C1005.77262,-490.366213 1005.7433,-489.816255 1005.7433,-489.258965 L1005.7433,-555.987105 C1005.7433,-565.100262 998.358899,-572.48582 989.250443,-572.48582 C980.140521,-572.48582 972.757584,-565.100262 972.757584,-555.987105 L972.757584,-392.230385 C972.649098,-391.467778 972.57433,-390.693438 972.57433,-389.900033 L972.57433,-321.338703 C972.57433,-312.227012 965.189927,-304.839987 956.081471,-304.839987 C949.04745,-304.839987 943.05871,-309.252844 940.688136,-315.454894 L940.688136,-441.046052 C940.688136,-450.159209 933.303733,-457.544767 924.195277,-457.544767 C915.085355,-457.544767 907.702418,-450.159209 907.702418,-441.046052 L907.702418,-281.228492 C906.116172,-273.772539 899.501436,-268.176175 891.576067,-268.176175 C882.466145,-268.176175 875.083208,-275.5632 875.083208,-284.67489 L875.083208,-426.747165 C875.083208,-435.860322 867.698806,-443.24588 858.590349,-443.24588 C849.480427,-443.24588 842.097491,-435.860322 842.097491,-426.747165 L842.097491,-419.836769 C840.964248,-411.829393 834.104685,-405.665472 825.787886,-405.665472 C817.235056,-405.665472 810.205433,-412.178432 809.378591,-420.514317 C809.324347,-419.971692 809.295027,-419.421735 809.295027,-418.864445 L809.295027,-485.592584 C809.295027,-494.705741 801.910624,-502.0913 792.802168,-502.0913 C783.692246,-502.0913 776.309309,-494.705741 776.309309,-485.592584 L776.309309,-461.505926 C776.278522,-461.10409 776.247736,-460.703722 776.247736,-460.294553 L776.247736,-391.733224 C776.247736,-382.621533 768.863333,-375.234508 759.754877,-375.234508 C752.720856,-375.234508 746.732115,-379.647364 744.361542,-385.849415 L744.361542,-511.440572 C744.361542,-520.553729 736.977139,-527.939288 727.868683,-527.939288 C718.760226,-527.939288 711.375824,-520.553729 711.375824,-511.440572 L711.375824,-351.623012 C709.791043,-344.167059 703.174841,-338.570695 695.249473,-338.570695 C686.141017,-338.570695 678.756614,-345.95772 678.756614,-355.069411 L678.756614,-497.141685 C678.756614,-506.254843 671.372211,-513.640401 662.263755,-513.640401 C653.155299,-513.640401 645.770896,-506.254843 645.770896,-497.141685 L645.770896,-490.23129 C644.637653,-482.223913 637.77809,-476.059993 629.461291,-476.059993 C620.909927,-476.059993 613.878838,-482.572953 613.051996,-490.908837 C612.999219,-490.366213 612.968432,-489.816255 612.968432,-489.258965 L612.968432,-555.987105 C612.968432,-565.100262 605.58403,-572.48582 596.475573,-572.48582 C587.367117,-572.48582 579.982714,-565.100262 579.982714,-555.987105 L579.982714,-392.230385 C579.874228,-391.467778 579.79946,-390.693438 579.79946,-389.900033 L579.79946,-321.338703 C579.79946,-312.227012 572.415058,-304.839987 563.306602,-304.839987 C556.27258,-304.839987 550.28384,-309.252844 547.913267,-315.454894 L547.913267,-441.046052 C547.913267,-450.159209 540.528864,-457.544767 531.420408,-457.544767 C522.311951,-457.544767 514.927549,-450.159209 514.927549,-441.046052 L514.927549,-281.228492 C513.342768,-273.772539 506.726566,-268.176175 498.801198,-268.176175 C489.692742,-268.176175 482.308339,-275.5632 482.308339,-284.67489 L482.308339,-426.747165 C482.308339,-435.860322 474.923936,-443.24588 465.81548,-443.24588 C456.707024,-443.24588 449.322621,-435.860322 449.322621,-426.747165 L449.322621,-419.836769 C448.189378,-411.829393 441.329815,-405.665472 433.013016,-405.665472 C424.461652,-405.665472 417.432029,-412.178432 416.603721,-420.514317 C416.549478,-419.971692 416.520157,-419.421735 416.520157,-418.864445 L416.520157,-485.592584 C416.520157,-494.705741 409.135754,-502.0913 400.027298,-502.0913 C390.918842,-502.0913 383.534439,-494.705741 383.534439,-485.592584 L383.534439,-299.340415 C383.534439,-290.228725 390.918842,-282.8417 400.027298,-282.8417 C409.135754,-282.8417 416.520157,-290.228725 416.520157,-299.340415 L416.520157,-309.239645 C416.520157,-318.352802 423.90456,-325.738361 433.013016,-325.738361 C441.328349,-325.738361 448.187912,-319.575907 449.322621,-311.569997 L449.322621,-140.281063 L449.322621,-138.936235 L449.322621,-133.369201 C448.189378,-125.363291 441.329815,-119.199371 433.013016,-119.199371 C424.461652,-119.199371 417.432029,-125.710864 416.603721,-134.048215 C416.549478,-133.505591 416.520157,-132.955633 416.520157,-132.398343 L416.520157,-199.126483 C416.520157,-208.238173 409.135754,-215.625198 400.027298,-215.625198 C390.918842,-215.625198 383.534439,-208.238173 383.534439,-199.126483 L383.534439,-12.8743139 C383.534439,-3.76262312 390.918842,3.62440187 400.027298,3.62440187 C409.135754,3.62440187 416.520157,-3.76262312 416.520157,-12.8743139 L416.520157,-22.7735433 C416.520157,-31.8852341 423.90456,-39.2722591 433.013016,-39.2722591 C441.328349,-39.2722591 448.187912,-33.1083389 449.322621,-25.1024287 L449.322621,147.529867 C449.322621,156.641558 456.707024,164.028583 465.81548,164.028583 C474.923936,164.028583 482.308339,156.641558 482.308339,147.529867 L482.308339,111.416011 C482.308339,102.304321 489.692742,94.9172956 498.801198,94.9172956 C506.726566,94.9172956 513.342768,100.512193 514.927549,107.968146 L514.927549,133.23098 C514.927549,142.342671 522.311951,149.729696 531.420408,149.729696 C540.528864,149.729696 547.913267,142.342671 547.913267,133.23098 L547.913267,64.833904 C550.28384,58.6318534 556.27258,54.2204635 563.306602,54.2204635 C572.415058,54.2204635 579.79946,61.6074885 579.79946,70.7191792 L579.79946,82.8182374 C579.79946,91.9299282 587.183863,99.3169532 596.292319,99.3169532 C605.400776,99.3169532 612.785178,91.9299282 612.785178,82.8182374 L612.785178,-80.939949 C612.893665,-81.7025563 612.968432,-82.4754295 612.968432,-83.2688344 L612.968432,-93.1680638 C612.968432,-102.279755 620.352835,-109.66678 629.461291,-109.66678 C637.77809,-109.66678 644.637653,-103.502859 645.770896,-95.4969492 L645.770896,77.1353465 C645.770896,86.2470372 653.155299,93.6340622 662.263755,93.6340622 C671.372211,93.6340622 678.756614,86.2470372 678.756614,77.1353465 L678.756614,41.0214909 C678.756614,31.9098001 686.141017,24.5227751 695.249473,24.5227751 C703.174841,24.5227751 709.791043,30.117673 711.375824,37.5736259 L711.375824,62.8364595 C711.375824,71.9481502 718.760226,79.3351752 727.868683,79.3351752 C736.977139,79.3351752 744.361542,71.9481502 744.361542,62.8364595 L744.361542,-5.5606165 C746.732115,-11.7626671 752.720856,-16.174057 759.754877,-16.174057 C768.863333,-16.174057 776.247736,-8.78703202 776.247736,0.324658725 L776.247736,12.4237169 C776.247736,21.5354077 783.632138,28.9224327 792.740594,28.9224327 C801.849051,28.9224327 809.233453,21.5354077 809.233453,12.4237169 L809.233453,-11.664408 C809.262774,-12.0662434 809.295027,-12.4651457 809.295027,-12.8743139 L809.295027,-22.7735433 C809.295027,-31.8852341 816.677963,-39.2722591 825.787886,-39.2722591 C834.103219,-39.2722591 840.962782,-33.1083389 842.097491,-25.1024287 L842.097491,147.529867 C842.097491,156.641558 849.480427,164.028583 858.590349,164.028583 C867.698806,164.028583 875.083208,156.641558 875.083208,147.529867 L875.083208,111.416011 C875.083208,102.304321 882.466145,94.9172956 891.576067,94.9172956 C899.501436,94.9172956 906.116172,100.512193 907.702418,107.968146 L907.702418,133.23098 C907.702418,142.342671 915.085355,149.729696 924.195277,149.729696 C933.303733,149.729696 940.688136,142.342671 940.688136,133.23098 L940.688136,64.833904 C943.05871,58.6318534 949.04745,54.2204635 956.081471,54.2204635 C965.189927,54.2204635 972.57433,61.6074885 972.57433,70.7191792 L972.57433,82.8182374 C972.57433,91.9299282 979.957267,99.3169532 989.067189,99.3169532 C998.175645,99.3169532 1005.56005,91.9299282 1005.56005,82.8182374 L1005.56005,-80.939949 C1005.66707,-81.7025563 1005.7433,-82.4754295 1005.7433,-83.2688344 L1005.7433,-93.1680638 C1005.7433,-102.279755 1013.12624,-109.66678 1022.23616,-109.66678 C1030.55149,-109.66678 1037.41106,-103.502859 1038.54577,-95.4969492 L1038.54577,77.1353465 C1038.54577,86.2470372 1045.9287,93.6340622 1055.03862,93.6340622 C1064.14708,93.6340622 1071.53148,86.2470372 1071.53148,77.1353465 L1071.53148,41.0214909 C1071.53148,31.9098001 1078.91442,24.5227751 1088.02434,24.5227751 C1095.94971,24.5227751 1102.56445,30.117673 1104.15069,37.5736259 L1104.15069,62.8364595 C1104.15069,71.9481502 1111.53363,79.3351752 1120.64355,79.3351752 C1129.75201,79.3351752 1137.13641,71.9481502 1137.13641,62.8364595 L1137.13641,-5.5606165 C1139.50698,-11.7626671 1145.49573,-16.174057 1152.52975,-16.174057 C1161.6382,-16.174057 1169.02261,-8.78703202 1169.02261,0.324658725 L1169.02261,12.4237169 C1169.02261,21.5354077 1176.40554,28.9224327 1185.51546,28.9224327 C1194.62392,28.9224327 1202.00832,21.5354077 1202.00832,12.4237169 L1202.00832,-173.828452 C1202.00832,-182.940143 1194.62392,-190.327168 1185.51546,-190.327168 C1176.40554,-190.327168 1169.02261,-182.940143 1169.02261,-173.828452 L1169.02261,-105.267122 C1169.02261,-96.1554313 1161.6382,-88.7684063 1152.52975,-88.7684063 C1145.49573,-88.7684063 1139.50698,-93.1797962 1137.13641,-99.3833133 L1137.13641,-223.629642 L1137.13641,-224.974471 L1137.13641,-292.026718 C1139.50698,-298.228769 1145.49573,-302.640159 1152.52975,-302.640159 C1161.6382,-302.640159 1169.02261,-295.2546 1169.02261,-286.141443 L1169.02261,-274.042385 C1169.02261,-264.930694 1176.40554,-257.543669 1185.51546,-257.543669 L1185.51546,-257.543669 Z" id="Mask-Copy-2" fill-opacity="0.300000012" fill="#FFFFFF" opacity="0.300000012" mask="url(#mask-2)" transform="translate(792.771381, -204.228619) rotate(-45.000000) translate(-792.771381, 204.228619) "></path>
            </g>
        </g>
    </g>
</svg>