<?xml version="1.0" encoding="UTF-8"?>
<svg width="1669px" height="1041px" viewBox="0 0 1669 1041" version="1.1" xmlns="http://www.w3.org/2000/svg" xmlns:xlink="http://www.w3.org/1999/xlink">
    <!-- Generator: Sketch 45.2 (43514) - http://www.bohemiancoding.com/sketch -->
    <title>Background_Pattern_Fade@1.5x</title>
    <desc>Created with Sketch.</desc>
    <defs>
        <rect id="path-1" x="0" y="0" width="1875.79694" height="1214.39497"></rect>
        <linearGradient x1="50%" y1="60.1739196%" x2="0%" y2="47.1186984%" id="linearGradient-3">
            <stop stop-color="#FFFFFF" stop-opacity="0.300000012" offset="0%"></stop>
            <stop stop-color="#FFFFFF" stop-opacity="0" offset="100%"></stop>
        </linearGradient>
        <linearGradient x1="50%" y1="60.1739196%" x2="43.3295796%" y2="92.671079%" id="linearGradient-4">
            <stop stop-color="#FFFFFF" stop-opacity="0.300000012" offset="0%"></stop>
            <stop stop-color="#FFFFFF" stop-opacity="0" offset="100%"></stop>
        </linearGradient>
    </defs>
    <g id="Assets" stroke="none" stroke-width="1" fill="none" fill-rule="evenodd">
        <g transform="translate(-415.000000, -377.000000)" id="Background_Pattern_Fade">
            <g transform="translate(271.000000, 377.000000)">
                <mask id="mask-2" fill="white">
                    <use xlink:href="#path-1"></use>
                </mask>
                <g id="Mask" opacity="0.300000012"></g>
                <path d="M861.150693,425.025529 L861.150693,426.370358 L861.150693,584.843089 C859.564447,592.299042 852.949711,597.895406 845.024342,597.895406 C835.91442,597.895406 828.531484,590.508381 828.531484,581.396691 L828.531484,440.669245 L828.531484,439.324416 L828.531484,404.555389 C828.531484,395.442232 835.91442,388.056674 845.024342,388.056674 C852.949711,388.056674 859.564447,393.651571 861.150693,401.107524 L861.150693,425.025529 Z M795.545766,439.324416 L795.545766,440.669245 L795.545766,446.236278 C794.412523,454.242188 787.55296,460.406109 779.236161,460.406109 C770.683331,460.406109 763.653708,453.894615 762.826866,445.557264 C762.772622,446.099889 762.743302,446.649846 762.743302,447.207136 L762.743302,380.478997 C762.743302,379.685592 762.667068,378.912719 762.560048,378.148645 L762.560048,282.59395 C762.667068,281.831342 762.743302,281.057002 762.743302,280.265064 L762.743302,270.365835 C762.743302,261.252677 770.126239,253.867119 779.236161,253.867119 C787.551494,253.867119 794.411057,260.029573 795.545766,268.035483 L795.545766,439.324416 Z M729.757584,544.237183 C729.649098,544.998324 729.57433,545.772664 729.57433,546.566069 L729.57433,615.127398 C729.57433,624.239089 722.189927,631.626114 713.081471,631.626114 C706.04745,631.626114 700.05871,627.214724 697.688136,621.011207 L697.688136,496.764878 L697.688136,495.42005 L697.688136,428.367802 C700.05871,422.165752 706.04745,417.754362 713.081471,417.754362 C722.189927,417.754362 729.57433,425.13992 729.57433,434.253078 L729.57433,446.352136 C729.57433,447.144074 729.649098,447.918414 729.757584,448.681021 L729.757584,544.237183 Z M664.702418,495.42005 L664.702418,496.764878 L664.702418,655.23761 C663.116172,662.693563 656.501436,668.289927 648.576067,668.289927 C639.466145,668.289927 632.083208,660.902902 632.083208,651.791211 L632.083208,511.063765 L632.083208,509.718937 L632.083208,474.94991 C632.083208,465.836753 639.466145,458.451194 648.576067,458.451194 C656.501436,458.451194 663.116172,464.046092 664.702418,471.502045 L664.702418,495.42005 Z M599.097491,509.718937 L599.097491,511.063765 L599.097491,516.630799 C597.964248,524.636709 591.104685,530.800629 582.787886,530.800629 C574.235056,530.800629 567.205433,524.289136 566.378591,515.951785 C566.324347,516.494409 566.295027,517.044367 566.295027,517.601657 L566.295027,450.873517 C566.295027,441.761827 558.910624,434.374802 549.802168,434.374802 C540.692246,434.374802 533.309309,441.761827 533.309309,450.873517 L533.309309,474.960176 C533.278522,475.362011 533.247736,475.76238 533.247736,476.171548 L533.247736,544.732878 C533.247736,553.844569 525.863333,561.231594 516.754877,561.231594 C509.720856,561.231594 503.732115,556.820204 501.361542,550.616687 L501.361542,426.370358 L501.361542,425.025529 L501.361542,357.973282 C503.732115,351.771231 509.720856,347.359841 516.754877,347.359841 C525.863333,347.359841 533.247736,354.7454 533.247736,363.858557 L533.247736,375.957615 C533.247736,385.069306 540.632138,392.456331 549.740594,392.456331 C558.849051,392.456331 566.233453,385.069306 566.233453,375.957615 L566.233453,351.86949 C566.262774,351.467655 566.295027,351.067286 566.295027,350.659585 L566.295027,340.760355 C566.295027,331.647198 573.677963,324.261639 582.787886,324.261639 C591.103219,324.261639 597.962782,330.424093 599.097491,338.430003 L599.097491,509.718937 Z M468.375824,425.025529 L468.375824,426.370358 L468.375824,584.843089 C466.791043,592.299042 460.174841,597.895406 452.249473,597.895406 C443.141017,597.895406 435.756614,590.508381 435.756614,581.396691 L435.756614,440.669245 L435.756614,439.324416 L435.756614,404.555389 C435.756614,395.442232 443.141017,388.056674 452.249473,388.056674 C460.174841,388.056674 466.791043,393.651571 468.375824,401.107524 L468.375824,425.025529 Z M402.770896,439.324416 L402.770896,440.669245 L402.770896,446.236278 C401.637653,454.242188 394.77809,460.406109 386.461291,460.406109 C377.909927,460.406109 370.878838,453.894615 370.051996,445.557264 C369.999219,446.099889 369.968432,446.649846 369.968432,447.207136 L369.968432,380.478997 C369.968432,379.685592 369.893665,378.912719 369.785178,378.148645 L369.785178,282.59395 C369.893665,281.831342 369.968432,281.057002 369.968432,280.265064 L369.968432,270.365835 C369.968432,261.252677 377.352835,253.867119 386.461291,253.867119 C394.77809,253.867119 401.637653,260.029573 402.770896,268.035483 L402.770896,439.324416 Z M336.982714,544.237183 C336.874228,544.998324 336.79946,545.772664 336.79946,546.566069 L336.79946,615.127398 C336.79946,624.239089 329.415058,631.626114 320.306602,631.626114 C313.27258,631.626114 307.28384,627.214724 304.913267,621.011207 L304.913267,496.764878 L304.913267,495.42005 L304.913267,428.367802 C307.28384,422.165752 313.27258,417.754362 320.306602,417.754362 C329.415058,417.754362 336.79946,425.13992 336.79946,434.253078 L336.79946,446.352136 C336.79946,447.144074 336.874228,447.918414 336.982714,448.681021 L336.982714,544.237183 Z M271.927549,495.42005 L271.927549,496.764878 L271.927549,655.23761 C270.342768,662.693563 263.726566,668.289927 255.801198,668.289927 C246.692742,668.289927 239.308339,660.902902 239.308339,651.791211 L239.308339,511.063765 L239.308339,509.718937 L239.308339,474.94991 C239.308339,465.836753 246.692742,458.451194 255.801198,458.451194 C263.726566,458.451194 270.342768,464.046092 271.927549,471.502045 L271.927549,495.42005 Z M942.515464,392.456331 C951.62392,392.456331 959.008323,385.069306 959.008323,375.957615 L959.008323,189.705447 C959.008323,180.592289 951.62392,173.206731 942.515464,173.206731 C933.405542,173.206731 926.022605,180.592289 926.022605,189.705447 L926.022605,258.266776 C926.022605,267.378467 918.638202,274.765492 909.529746,274.765492 C902.495725,274.765492 896.506985,270.352636 894.136411,264.150585 L894.136411,138.559428 C894.136411,129.446271 886.752009,122.060712 877.643552,122.060712 C868.53363,122.060712 861.150693,129.446271 861.150693,138.559428 L861.150693,298.376988 C859.564447,305.832941 852.949711,311.429305 845.024342,311.429305 C835.91442,311.429305 828.531484,304.04228 828.531484,294.930589 L828.531484,152.858315 C828.531484,143.745157 821.147081,136.359599 812.038625,136.359599 C802.928702,136.359599 795.545766,143.745157 795.545766,152.858315 L795.545766,159.76871 C794.412523,167.776087 787.55296,173.940007 779.236161,173.940007 C770.683331,173.940007 763.653708,167.427047 762.826866,159.091163 C762.772622,159.633787 762.743302,160.183745 762.743302,160.741035 L762.743302,94.0128953 C762.743302,84.899738 755.358899,77.5141796 746.250443,77.5141796 C737.140521,77.5141796 729.757584,84.899738 729.757584,94.0128953 L729.757584,257.769615 C729.649098,258.532222 729.57433,259.306562 729.57433,260.099967 L729.57433,328.661297 C729.57433,337.772988 722.189927,345.160013 713.081471,345.160013 C706.04745,345.160013 700.05871,340.747156 697.688136,334.545106 L697.688136,208.953948 C697.688136,199.840791 690.303733,192.455233 681.195277,192.455233 C672.085355,192.455233 664.702418,199.840791 664.702418,208.953948 L664.702418,368.771508 C663.116172,376.227461 656.501436,381.823825 648.576067,381.823825 C639.466145,381.823825 632.083208,374.4368 632.083208,365.32511 L632.083208,223.252835 C632.083208,214.139678 624.698806,206.75412 615.590349,206.75412 C606.480427,206.75412 599.097491,214.139678 599.097491,223.252835 L599.097491,230.163231 C597.964248,238.170607 591.104685,244.334528 582.787886,244.334528 C574.235056,244.334528 567.205433,237.821568 566.378591,229.485683 C566.324347,230.028308 566.295027,230.578265 566.295027,231.135555 L566.295027,164.407416 C566.295027,155.294259 558.910624,147.9087 549.802168,147.9087 C540.692246,147.9087 533.309309,155.294259 533.309309,164.407416 L533.309309,188.494074 C533.278522,188.89591 533.247736,189.296278 533.247736,189.705447 L533.247736,258.266776 C533.247736,267.378467 525.863333,274.765492 516.754877,274.765492 C509.720856,274.765492 503.732115,270.352636 501.361542,264.150585 L501.361542,138.559428 C501.361542,129.446271 493.977139,122.060712 484.868683,122.060712 C475.760226,122.060712 468.375824,129.446271 468.375824,138.559428 L468.375824,298.376988 C466.791043,305.832941 460.174841,311.429305 452.249473,311.429305 C443.141017,311.429305 435.756614,304.04228 435.756614,294.930589 L435.756614,152.858315 C435.756614,143.745157 428.372211,136.359599 419.263755,136.359599 C410.155299,136.359599 402.770896,143.745157 402.770896,152.858315 L402.770896,159.76871 C401.637653,167.776087 394.77809,173.940007 386.461291,173.940007 C377.909927,173.940007 370.878838,167.427047 370.051996,159.091163 C369.999219,159.633787 369.968432,160.183745 369.968432,160.741035 L369.968432,94.0128953 C369.968432,84.899738 362.58403,77.5141796 353.475573,77.5141796 C344.367117,77.5141796 336.982714,84.899738 336.982714,94.0128953 L336.982714,257.769615 C336.874228,258.532222 336.79946,259.306562 336.79946,260.099967 L336.79946,328.661297 C336.79946,337.772988 329.415058,345.160013 320.306602,345.160013 C313.27258,345.160013 307.28384,340.747156 304.913267,334.545106 L304.913267,208.953948 C304.913267,199.840791 297.528864,192.455233 288.420408,192.455233 C279.311951,192.455233 271.927549,199.840791 271.927549,208.953948 L271.927549,368.771508 C270.342768,376.227461 263.726566,381.823825 255.801198,381.823825 C246.692742,381.823825 239.308339,374.4368 239.308339,365.32511 L239.308339,223.252835 C239.308339,214.139678 231.923936,206.75412 222.81548,206.75412 C213.707024,206.75412 206.322621,214.139678 206.322621,223.252835 L206.322621,230.163231 C205.189378,238.170607 198.329815,244.334528 190.013016,244.334528 C181.461652,244.334528 174.432029,237.821568 173.603721,229.485683 C173.549478,230.028308 173.520157,230.578265 173.520157,231.135555 L173.520157,164.407416 C173.520157,155.294259 166.135754,147.9087 157.027298,147.9087 C147.918842,147.9087 140.534439,155.294259 140.534439,164.407416 L140.534439,350.659585 C140.534439,359.771275 147.918842,367.1583 157.027298,367.1583 C166.135754,367.1583 173.520157,359.771275 173.520157,350.659585 L173.520157,340.760355 C173.520157,331.647198 180.90456,324.261639 190.013016,324.261639 C198.328349,324.261639 205.187912,330.424093 206.322621,338.430003 L206.322621,509.718937 L206.322621,511.063765 L206.322621,516.630799 C205.189378,524.636709 198.329815,530.800629 190.013016,530.800629 C181.461652,530.800629 174.432029,524.289136 173.603721,515.951785 C173.549478,516.494409 173.520157,517.044367 173.520157,517.601657 L173.520157,450.873517 C173.520157,441.761827 166.135754,434.374802 157.027298,434.374802 C147.918842,434.374802 140.534439,441.761827 140.534439,450.873517 L140.534439,637.125686 C140.534439,646.237377 147.918842,653.624402 157.027298,653.624402 C166.135754,653.624402 173.520157,646.237377 173.520157,637.125686 L173.520157,627.226457 C173.520157,618.114766 180.90456,610.727741 190.013016,610.727741 C198.328349,610.727741 205.187912,616.891661 206.322621,624.897571 L206.322621,797.529867 C206.322621,806.641558 213.707024,814.028583 222.81548,814.028583 C231.923936,814.028583 239.308339,806.641558 239.308339,797.529867 L239.308339,761.416011 C239.308339,752.304321 246.692742,744.917296 255.801198,744.917296 C263.726566,744.917296 270.342768,750.512193 271.927549,757.968146 L271.927549,783.23098 C271.927549,792.342671 279.311951,799.729696 288.420408,799.729696 C297.528864,799.729696 304.913267,792.342671 304.913267,783.23098 L304.913267,714.833904 C307.28384,708.631853 313.27258,704.220463 320.306602,704.220463 C329.415058,704.220463 336.79946,711.607488 336.79946,720.719179 L336.79946,732.818237 C336.79946,741.929928 344.183863,749.316953 353.292319,749.316953 C362.400776,749.316953 369.785178,741.929928 369.785178,732.818237 L369.785178,569.060051 C369.893665,568.297444 369.968432,567.524571 369.968432,566.731166 L369.968432,556.831936 C369.968432,547.720245 377.352835,540.33322 386.461291,540.33322 C394.77809,540.33322 401.637653,546.497141 402.770896,554.503051 L402.770896,727.135346 C402.770896,736.247037 410.155299,743.634062 419.263755,743.634062 C428.372211,743.634062 435.756614,736.247037 435.756614,727.135346 L435.756614,691.021491 C435.756614,681.9098 443.141017,674.522775 452.249473,674.522775 C460.174841,674.522775 466.791043,680.117673 468.375824,687.573626 L468.375824,712.836459 C468.375824,721.94815 475.760226,729.335175 484.868683,729.335175 C493.977139,729.335175 501.361542,721.94815 501.361542,712.836459 L501.361542,644.439384 C503.732115,638.237333 509.720856,633.825943 516.754877,633.825943 C525.863333,633.825943 533.247736,641.212968 533.247736,650.324659 L533.247736,662.423717 C533.247736,671.535408 540.632138,678.922433 549.740594,678.922433 C558.849051,678.922433 566.233453,671.535408 566.233453,662.423717 L566.233453,638.335592 C566.262774,637.933757 566.295027,637.534854 566.295027,637.125686 L566.295027,627.226457 C566.295027,618.114766 573.677963,610.727741 582.787886,610.727741 C591.103219,610.727741 597.962782,616.891661 599.097491,624.897571 L599.097491,797.529867 C599.097491,806.641558 606.480427,814.028583 615.590349,814.028583 C624.698806,814.028583 632.083208,806.641558 632.083208,797.529867 L632.083208,761.416011 C632.083208,752.304321 639.466145,744.917296 648.576067,744.917296 C656.501436,744.917296 663.116172,750.512193 664.702418,757.968146 L664.702418,783.23098 C664.702418,792.342671 672.085355,799.729696 681.195277,799.729696 C690.303733,799.729696 697.688136,792.342671 697.688136,783.23098 L697.688136,714.833904 C700.05871,708.631853 706.04745,704.220463 713.081471,704.220463 C722.189927,704.220463 729.57433,711.607488 729.57433,720.719179 L729.57433,732.818237 C729.57433,741.929928 736.957267,749.316953 746.067189,749.316953 C755.175645,749.316953 762.560048,741.929928 762.560048,732.818237 L762.560048,569.060051 C762.667068,568.297444 762.743302,567.524571 762.743302,566.731166 L762.743302,556.831936 C762.743302,547.720245 770.126239,540.33322 779.236161,540.33322 C787.551494,540.33322 794.411057,546.497141 795.545766,554.503051 L795.545766,727.135346 C795.545766,736.247037 802.928702,743.634062 812.038625,743.634062 C821.147081,743.634062 828.531484,736.247037 828.531484,727.135346 L828.531484,691.021491 C828.531484,681.9098 835.91442,674.522775 845.024342,674.522775 C852.949711,674.522775 859.564447,680.117673 861.150693,687.573626 L861.150693,712.836459 C861.150693,721.94815 868.53363,729.335175 877.643552,729.335175 C886.752009,729.335175 894.136411,721.94815 894.136411,712.836459 L894.136411,644.439384 C896.506985,638.237333 902.495725,633.825943 909.529746,633.825943 C918.638202,633.825943 926.022605,641.212968 926.022605,650.324659 L926.022605,662.423717 C926.022605,671.535408 933.405542,678.922433 942.515464,678.922433 C951.62392,678.922433 959.008323,671.535408 959.008323,662.423717 L959.008323,476.171548 C959.008323,467.059857 951.62392,459.672832 942.515464,459.672832 C933.405542,459.672832 926.022605,467.059857 926.022605,476.171548 L926.022605,544.732878 C926.022605,553.844569 918.638202,561.231594 909.529746,561.231594 C902.495725,561.231594 896.506985,556.820204 894.136411,550.616687 L894.136411,426.370358 L894.136411,425.025529 L894.136411,357.973282 C896.506985,351.771231 902.495725,347.359841 909.529746,347.359841 C918.638202,347.359841 926.022605,354.7454 926.022605,363.858557 L926.022605,375.957615 C926.022605,385.069306 933.405542,392.456331 942.515464,392.456331 L942.515464,392.456331 Z" id="Mask" fill="url(#linearGradient-3)" opacity="0.300000012" mask="url(#mask-2)" transform="translate(549.771381, 445.771381) rotate(-45.000000) translate(-549.771381, -445.771381) "></path>
                <path d="M1676.15069,590.025529 L1676.15069,591.370358 L1676.15069,749.843089 C1674.56445,757.299042 1667.94971,762.895406 1660.02434,762.895406 C1650.91442,762.895406 1643.53148,755.508381 1643.53148,746.396691 L1643.53148,605.669245 L1643.53148,604.324416 L1643.53148,569.555389 C1643.53148,560.442232 1650.91442,553.056674 1660.02434,553.056674 C1667.94971,553.056674 1674.56445,558.651571 1676.15069,566.107524 L1676.15069,590.025529 Z M1610.54577,604.324416 L1610.54577,605.669245 L1610.54577,611.236278 C1609.41252,619.242188 1602.55296,625.406109 1594.23616,625.406109 C1585.68333,625.406109 1578.65371,618.894615 1577.82687,610.557264 C1577.77262,611.099889 1577.7433,611.649846 1577.7433,612.207136 L1577.7433,545.478997 C1577.7433,544.685592 1577.66707,543.912719 1577.56005,543.148645 L1577.56005,447.59395 C1577.66707,446.831342 1577.7433,446.057002 1577.7433,445.265064 L1577.7433,435.365835 C1577.7433,426.252677 1585.12624,418.867119 1594.23616,418.867119 C1602.55149,418.867119 1609.41106,425.029573 1610.54577,433.035483 L1610.54577,604.324416 Z M1544.75758,709.237183 C1544.6491,709.998324 1544.57433,710.772664 1544.57433,711.566069 L1544.57433,780.127398 C1544.57433,789.239089 1537.18993,796.626114 1528.08147,796.626114 C1521.04745,796.626114 1515.05871,792.214724 1512.68814,786.011207 L1512.68814,661.764878 L1512.68814,660.42005 L1512.68814,593.367802 C1515.05871,587.165752 1521.04745,582.754362 1528.08147,582.754362 C1537.18993,582.754362 1544.57433,590.13992 1544.57433,599.253078 L1544.57433,611.352136 C1544.57433,612.144074 1544.6491,612.918414 1544.75758,613.681021 L1544.75758,709.237183 Z M1479.70242,660.42005 L1479.70242,661.764878 L1479.70242,820.23761 C1478.11617,827.693563 1471.50144,833.289927 1463.57607,833.289927 C1454.46615,833.289927 1447.08321,825.902902 1447.08321,816.791211 L1447.08321,676.063765 L1447.08321,674.718937 L1447.08321,639.94991 C1447.08321,630.836753 1454.46615,623.451194 1463.57607,623.451194 C1471.50144,623.451194 1478.11617,629.046092 1479.70242,636.502045 L1479.70242,660.42005 Z M1414.09749,674.718937 L1414.09749,676.063765 L1414.09749,681.630799 C1412.96425,689.636709 1406.10468,695.800629 1397.78789,695.800629 C1389.23506,695.800629 1382.20543,689.289136 1381.37859,680.951785 C1381.32435,681.494409 1381.29503,682.044367 1381.29503,682.601657 L1381.29503,615.873517 C1381.29503,606.761827 1373.91062,599.374802 1364.80217,599.374802 C1355.69225,599.374802 1348.30931,606.761827 1348.30931,615.873517 L1348.30931,639.960176 C1348.27852,640.362011 1348.24774,640.76238 1348.24774,641.171548 L1348.24774,709.732878 C1348.24774,718.844569 1340.86333,726.231594 1331.75488,726.231594 C1324.72086,726.231594 1318.73212,721.820204 1316.36154,715.616687 L1316.36154,591.370358 L1316.36154,590.025529 L1316.36154,522.973282 C1318.73212,516.771231 1324.72086,512.359841 1331.75488,512.359841 C1340.86333,512.359841 1348.24774,519.7454 1348.24774,528.858557 L1348.24774,540.957615 C1348.24774,550.069306 1355.63214,557.456331 1364.74059,557.456331 C1373.84905,557.456331 1381.23345,550.069306 1381.23345,540.957615 L1381.23345,516.86949 C1381.26277,516.467655 1381.29503,516.067286 1381.29503,515.659585 L1381.29503,505.760355 C1381.29503,496.647198 1388.67796,489.261639 1397.78789,489.261639 C1406.10322,489.261639 1412.96278,495.424093 1414.09749,503.430003 L1414.09749,674.718937 Z M1283.37582,590.025529 L1283.37582,591.370358 L1283.37582,749.843089 C1281.79104,757.299042 1275.17484,762.895406 1267.24947,762.895406 C1258.14102,762.895406 1250.75661,755.508381 1250.75661,746.396691 L1250.75661,605.669245 L1250.75661,604.324416 L1250.75661,569.555389 C1250.75661,560.442232 1258.14102,553.056674 1267.24947,553.056674 C1275.17484,553.056674 1281.79104,558.651571 1283.37582,566.107524 L1283.37582,590.025529 Z M1217.7709,604.324416 L1217.7709,605.669245 L1217.7709,611.236278 C1216.63765,619.242188 1209.77809,625.406109 1201.46129,625.406109 C1192.90993,625.406109 1185.87884,618.894615 1185.052,610.557264 C1184.99922,611.099889 1184.96843,611.649846 1184.96843,612.207136 L1184.96843,545.478997 C1184.96843,544.685592 1184.89366,543.912719 1184.78518,543.148645 L1184.78518,447.59395 C1184.89366,446.831342 1184.96843,446.057002 1184.96843,445.265064 L1184.96843,435.365835 C1184.96843,426.252677 1192.35283,418.867119 1201.46129,418.867119 C1209.77809,418.867119 1216.63765,425.029573 1217.7709,433.035483 L1217.7709,604.324416 Z M1151.98271,709.237183 C1151.87423,709.998324 1151.79946,710.772664 1151.79946,711.566069 L1151.79946,780.127398 C1151.79946,789.239089 1144.41506,796.626114 1135.3066,796.626114 C1128.27258,796.626114 1122.28384,792.214724 1119.91327,786.011207 L1119.91327,661.764878 L1119.91327,660.42005 L1119.91327,593.367802 C1122.28384,587.165752 1128.27258,582.754362 1135.3066,582.754362 C1144.41506,582.754362 1151.79946,590.13992 1151.79946,599.253078 L1151.79946,611.352136 C1151.79946,612.144074 1151.87423,612.918414 1151.98271,613.681021 L1151.98271,709.237183 Z M1086.92755,660.42005 L1086.92755,661.764878 L1086.92755,820.23761 C1085.34277,827.693563 1078.72657,833.289927 1070.8012,833.289927 C1061.69274,833.289927 1054.30834,825.902902 1054.30834,816.791211 L1054.30834,676.063765 L1054.30834,674.718937 L1054.30834,639.94991 C1054.30834,630.836753 1061.69274,623.451194 1070.8012,623.451194 C1078.72657,623.451194 1085.34277,629.046092 1086.92755,636.502045 L1086.92755,660.42005 Z M1757.51546,557.456331 C1766.62392,557.456331 1774.00832,550.069306 1774.00832,540.957615 L1774.00832,354.705447 C1774.00832,345.592289 1766.62392,338.206731 1757.51546,338.206731 C1748.40554,338.206731 1741.02261,345.592289 1741.02261,354.705447 L1741.02261,423.266776 C1741.02261,432.378467 1733.6382,439.765492 1724.52975,439.765492 C1717.49573,439.765492 1711.50698,435.352636 1709.13641,429.150585 L1709.13641,303.559428 C1709.13641,294.446271 1701.75201,287.060712 1692.64355,287.060712 C1683.53363,287.060712 1676.15069,294.446271 1676.15069,303.559428 L1676.15069,463.376988 C1674.56445,470.832941 1667.94971,476.429305 1660.02434,476.429305 C1650.91442,476.429305 1643.53148,469.04228 1643.53148,459.930589 L1643.53148,317.858315 C1643.53148,308.745157 1636.14708,301.359599 1627.03862,301.359599 C1617.9287,301.359599 1610.54577,308.745157 1610.54577,317.858315 L1610.54577,324.76871 C1609.41252,332.776087 1602.55296,338.940007 1594.23616,338.940007 C1585.68333,338.940007 1578.65371,332.427047 1577.82687,324.091163 C1577.77262,324.633787 1577.7433,325.183745 1577.7433,325.741035 L1577.7433,259.012895 C1577.7433,249.899738 1570.3589,242.51418 1561.25044,242.51418 C1552.14052,242.51418 1544.75758,249.899738 1544.75758,259.012895 L1544.75758,422.769615 C1544.6491,423.532222 1544.57433,424.306562 1544.57433,425.099967 L1544.57433,493.661297 C1544.57433,502.772988 1537.18993,510.160013 1528.08147,510.160013 C1521.04745,510.160013 1515.05871,505.747156 1512.68814,499.545106 L1512.68814,373.953948 C1512.68814,364.840791 1505.30373,357.455233 1496.19528,357.455233 C1487.08535,357.455233 1479.70242,364.840791 1479.70242,373.953948 L1479.70242,533.771508 C1478.11617,541.227461 1471.50144,546.823825 1463.57607,546.823825 C1454.46615,546.823825 1447.08321,539.4368 1447.08321,530.32511 L1447.08321,388.252835 C1447.08321,379.139678 1439.69881,371.75412 1430.59035,371.75412 C1421.48043,371.75412 1414.09749,379.139678 1414.09749,388.252835 L1414.09749,395.163231 C1412.96425,403.170607 1406.10468,409.334528 1397.78789,409.334528 C1389.23506,409.334528 1382.20543,402.821568 1381.37859,394.485683 C1381.32435,395.028308 1381.29503,395.578265 1381.29503,396.135555 L1381.29503,329.407416 C1381.29503,320.294259 1373.91062,312.9087 1364.80217,312.9087 C1355.69225,312.9087 1348.30931,320.294259 1348.30931,329.407416 L1348.30931,353.494074 C1348.27852,353.89591 1348.24774,354.296278 1348.24774,354.705447 L1348.24774,423.266776 C1348.24774,432.378467 1340.86333,439.765492 1331.75488,439.765492 C1324.72086,439.765492 1318.73212,435.352636 1316.36154,429.150585 L1316.36154,303.559428 C1316.36154,294.446271 1308.97714,287.060712 1299.86868,287.060712 C1290.76023,287.060712 1283.37582,294.446271 1283.37582,303.559428 L1283.37582,463.376988 C1281.79104,470.832941 1275.17484,476.429305 1267.24947,476.429305 C1258.14102,476.429305 1250.75661,469.04228 1250.75661,459.930589 L1250.75661,317.858315 C1250.75661,308.745157 1243.37221,301.359599 1234.26376,301.359599 C1225.1553,301.359599 1217.7709,308.745157 1217.7709,317.858315 L1217.7709,324.76871 C1216.63765,332.776087 1209.77809,338.940007 1201.46129,338.940007 C1192.90993,338.940007 1185.87884,332.427047 1185.052,324.091163 C1184.99922,324.633787 1184.96843,325.183745 1184.96843,325.741035 L1184.96843,259.012895 C1184.96843,249.899738 1177.58403,242.51418 1168.47557,242.51418 C1159.36712,242.51418 1151.98271,249.899738 1151.98271,259.012895 L1151.98271,422.769615 C1151.87423,423.532222 1151.79946,424.306562 1151.79946,425.099967 L1151.79946,493.661297 C1151.79946,502.772988 1144.41506,510.160013 1135.3066,510.160013 C1128.27258,510.160013 1122.28384,505.747156 1119.91327,499.545106 L1119.91327,373.953948 C1119.91327,364.840791 1112.52886,357.455233 1103.42041,357.455233 C1094.31195,357.455233 1086.92755,364.840791 1086.92755,373.953948 L1086.92755,533.771508 C1085.34277,541.227461 1078.72657,546.823825 1070.8012,546.823825 C1061.69274,546.823825 1054.30834,539.4368 1054.30834,530.32511 L1054.30834,388.252835 C1054.30834,379.139678 1046.92394,371.75412 1037.81548,371.75412 C1028.70702,371.75412 1021.32262,379.139678 1021.32262,388.252835 L1021.32262,395.163231 C1020.18938,403.170607 1013.32982,409.334528 1005.01302,409.334528 C996.461652,409.334528 989.432029,402.821568 988.603721,394.485683 C988.549478,395.028308 988.520157,395.578265 988.520157,396.135555 L988.520157,329.407416 C988.520157,320.294259 981.135754,312.9087 972.027298,312.9087 C962.918842,312.9087 955.534439,320.294259 955.534439,329.407416 L955.534439,515.659585 C955.534439,524.771275 962.918842,532.1583 972.027298,532.1583 C981.135754,532.1583 988.520157,524.771275 988.520157,515.659585 L988.520157,505.760355 C988.520157,496.647198 995.90456,489.261639 1005.01302,489.261639 C1013.32835,489.261639 1020.18791,495.424093 1021.32262,503.430003 L1021.32262,674.718937 L1021.32262,676.063765 L1021.32262,681.630799 C1020.18938,689.636709 1013.32982,695.800629 1005.01302,695.800629 C996.461652,695.800629 989.432029,689.289136 988.603721,680.951785 C988.549478,681.494409 988.520157,682.044367 988.520157,682.601657 L988.520157,615.873517 C988.520157,606.761827 981.135754,599.374802 972.027298,599.374802 C962.918842,599.374802 955.534439,606.761827 955.534439,615.873517 L955.534439,802.125686 C955.534439,811.237377 962.918842,818.624402 972.027298,818.624402 C981.135754,818.624402 988.520157,811.237377 988.520157,802.125686 L988.520157,792.226457 C988.520157,783.114766 995.90456,775.727741 1005.01302,775.727741 C1013.32835,775.727741 1020.18791,781.891661 1021.32262,789.897571 L1021.32262,962.529867 C1021.32262,971.641558 1028.70702,979.028583 1037.81548,979.028583 C1046.92394,979.028583 1054.30834,971.641558 1054.30834,962.529867 L1054.30834,926.416011 C1054.30834,917.304321 1061.69274,909.917296 1070.8012,909.917296 C1078.72657,909.917296 1085.34277,915.512193 1086.92755,922.968146 L1086.92755,948.23098 C1086.92755,957.342671 1094.31195,964.729696 1103.42041,964.729696 C1112.52886,964.729696 1119.91327,957.342671 1119.91327,948.23098 L1119.91327,879.833904 C1122.28384,873.631853 1128.27258,869.220463 1135.3066,869.220463 C1144.41506,869.220463 1151.79946,876.607488 1151.79946,885.719179 L1151.79946,897.818237 C1151.79946,906.929928 1159.18386,914.316953 1168.29232,914.316953 C1177.40078,914.316953 1184.78518,906.929928 1184.78518,897.818237 L1184.78518,734.060051 C1184.89366,733.297444 1184.96843,732.524571 1184.96843,731.731166 L1184.96843,721.831936 C1184.96843,712.720245 1192.35283,705.33322 1201.46129,705.33322 C1209.77809,705.33322 1216.63765,711.497141 1217.7709,719.503051 L1217.7709,892.135346 C1217.7709,901.247037 1225.1553,908.634062 1234.26376,908.634062 C1243.37221,908.634062 1250.75661,901.247037 1250.75661,892.135346 L1250.75661,856.021491 C1250.75661,846.9098 1258.14102,839.522775 1267.24947,839.522775 C1275.17484,839.522775 1281.79104,845.117673 1283.37582,852.573626 L1283.37582,877.836459 C1283.37582,886.94815 1290.76023,894.335175 1299.86868,894.335175 C1308.97714,894.335175 1316.36154,886.94815 1316.36154,877.836459 L1316.36154,809.439384 C1318.73212,803.237333 1324.72086,798.825943 1331.75488,798.825943 C1340.86333,798.825943 1348.24774,806.212968 1348.24774,815.324659 L1348.24774,827.423717 C1348.24774,836.535408 1355.63214,843.922433 1364.74059,843.922433 C1373.84905,843.922433 1381.23345,836.535408 1381.23345,827.423717 L1381.23345,803.335592 C1381.26277,802.933757 1381.29503,802.534854 1381.29503,802.125686 L1381.29503,792.226457 C1381.29503,783.114766 1388.67796,775.727741 1397.78789,775.727741 C1406.10322,775.727741 1412.96278,781.891661 1414.09749,789.897571 L1414.09749,962.529867 C1414.09749,971.641558 1421.48043,979.028583 1430.59035,979.028583 C1439.69881,979.028583 1447.08321,971.641558 1447.08321,962.529867 L1447.08321,926.416011 C1447.08321,917.304321 1454.46615,909.917296 1463.57607,909.917296 C1471.50144,909.917296 1478.11617,915.512193 1479.70242,922.968146 L1479.70242,948.23098 C1479.70242,957.342671 1487.08535,964.729696 1496.19528,964.729696 C1505.30373,964.729696 1512.68814,957.342671 1512.68814,948.23098 L1512.68814,879.833904 C1515.05871,873.631853 1521.04745,869.220463 1528.08147,869.220463 C1537.18993,869.220463 1544.57433,876.607488 1544.57433,885.719179 L1544.57433,897.818237 C1544.57433,906.929928 1551.95727,914.316953 1561.06719,914.316953 C1570.17565,914.316953 1577.56005,906.929928 1577.56005,897.818237 L1577.56005,734.060051 C1577.66707,733.297444 1577.7433,732.524571 1577.7433,731.731166 L1577.7433,721.831936 C1577.7433,712.720245 1585.12624,705.33322 1594.23616,705.33322 C1602.55149,705.33322 1609.41106,711.497141 1610.54577,719.503051 L1610.54577,892.135346 C1610.54577,901.247037 1617.9287,908.634062 1627.03862,908.634062 C1636.14708,908.634062 1643.53148,901.247037 1643.53148,892.135346 L1643.53148,856.021491 C1643.53148,846.9098 1650.91442,839.522775 1660.02434,839.522775 C1667.94971,839.522775 1674.56445,845.117673 1676.15069,852.573626 L1676.15069,877.836459 C1676.15069,886.94815 1683.53363,894.335175 1692.64355,894.335175 C1701.75201,894.335175 1709.13641,886.94815 1709.13641,877.836459 L1709.13641,809.439384 C1711.50698,803.237333 1717.49573,798.825943 1724.52975,798.825943 C1733.6382,798.825943 1741.02261,806.212968 1741.02261,815.324659 L1741.02261,827.423717 C1741.02261,836.535408 1748.40554,843.922433 1757.51546,843.922433 C1766.62392,843.922433 1774.00832,836.535408 1774.00832,827.423717 L1774.00832,641.171548 C1774.00832,632.059857 1766.62392,624.672832 1757.51546,624.672832 C1748.40554,624.672832 1741.02261,632.059857 1741.02261,641.171548 L1741.02261,709.732878 C1741.02261,718.844569 1733.6382,726.231594 1724.52975,726.231594 C1717.49573,726.231594 1711.50698,721.820204 1709.13641,715.616687 L1709.13641,591.370358 L1709.13641,590.025529 L1709.13641,522.973282 C1711.50698,516.771231 1717.49573,512.359841 1724.52975,512.359841 C1733.6382,512.359841 1741.02261,519.7454 1741.02261,528.858557 L1741.02261,540.957615 C1741.02261,550.069306 1748.40554,557.456331 1757.51546,557.456331 L1757.51546,557.456331 Z" id="Mask-Copy" fill="url(#linearGradient-4)" opacity="0.300000012" mask="url(#mask-2)" transform="translate(1364.771381, 610.771381) rotate(-45.000000) translate(-1364.771381, -610.771381) "></path>
                <path d="M1449.15069,-224.974471 L1449.15069,-223.629642 L1449.15069,-65.1569109 C1447.56445,-57.7009579 1440.94971,-52.1045935 1433.02434,-52.1045935 C1423.91442,-52.1045935 1416.53148,-59.4916185 1416.53148,-68.6033093 L1416.53148,-209.330755 L1416.53148,-210.675584 L1416.53148,-245.444611 C1416.53148,-254.557768 1423.91442,-261.943326 1433.02434,-261.943326 C1440.94971,-261.943326 1447.56445,-256.348429 1449.15069,-248.892476 L1449.15069,-224.974471 Z M1383.54577,-210.675584 L1383.54577,-209.330755 L1383.54577,-203.763722 C1382.41252,-195.757812 1375.55296,-189.593891 1367.23616,-189.593891 C1358.68333,-189.593891 1351.65371,-196.105385 1350.82687,-204.442736 C1350.77262,-203.900111 1350.7433,-203.350154 1350.7433,-202.792864 L1350.7433,-269.521003 C1350.7433,-270.314408 1350.66707,-271.087281 1350.56005,-271.851355 L1350.56005,-367.40605 C1350.66707,-368.168658 1350.7433,-368.942998 1350.7433,-369.734936 L1350.7433,-379.634165 C1350.7433,-388.747323 1358.12624,-396.132881 1367.23616,-396.132881 C1375.55149,-396.132881 1382.41106,-389.970427 1383.54577,-381.964517 L1383.54577,-210.675584 Z M1317.75758,-105.762817 C1317.6491,-105.001676 1317.57433,-104.227336 1317.57433,-103.433931 L1317.57433,-34.8726015 C1317.57433,-25.7609108 1310.18993,-18.3738858 1301.08147,-18.3738858 C1294.04745,-18.3738858 1288.05871,-22.7852757 1285.68814,-28.9887929 L1285.68814,-153.235122 L1285.68814,-154.57995 L1285.68814,-221.632198 C1288.05871,-227.834248 1294.04745,-232.245638 1301.08147,-232.245638 C1310.18993,-232.245638 1317.57433,-224.86008 1317.57433,-215.746922 L1317.57433,-203.647864 C1317.57433,-202.855926 1317.6491,-202.081586 1317.75758,-201.318979 L1317.75758,-105.762817 Z M1252.70242,-154.57995 L1252.70242,-153.235122 L1252.70242,5.23760963 C1251.11617,12.6935626 1244.50144,18.289927 1236.57607,18.289927 C1227.46615,18.289927 1220.08321,10.902902 1220.08321,1.79121124 L1220.08321,-138.936235 L1220.08321,-140.281063 L1220.08321,-175.05009 C1220.08321,-184.163247 1227.46615,-191.548806 1236.57607,-191.548806 C1244.50144,-191.548806 1251.11617,-185.953908 1252.70242,-178.497955 L1252.70242,-154.57995 Z M1187.09749,-140.281063 L1187.09749,-138.936235 L1187.09749,-133.369201 C1185.96425,-125.363291 1179.10468,-119.199371 1170.78789,-119.199371 C1162.23506,-119.199371 1155.20543,-125.710864 1154.37859,-134.048215 C1154.32435,-133.505591 1154.29503,-132.955633 1154.29503,-132.398343 L1154.29503,-199.126483 C1154.29503,-208.238173 1146.91062,-215.625198 1137.80217,-215.625198 C1128.69225,-215.625198 1121.30931,-208.238173 1121.30931,-199.126483 L1121.30931,-175.039824 C1121.27852,-174.637989 1121.24774,-174.23762 1121.24774,-173.828452 L1121.24774,-105.267122 C1121.24774,-96.1554313 1113.86333,-88.7684063 1104.75488,-88.7684063 C1097.72086,-88.7684063 1091.73212,-93.1797962 1089.36154,-99.3833133 L1089.36154,-223.629642 L1089.36154,-224.974471 L1089.36154,-292.026718 C1091.73212,-298.228769 1097.72086,-302.640159 1104.75488,-302.640159 C1113.86333,-302.640159 1121.24774,-295.2546 1121.24774,-286.141443 L1121.24774,-274.042385 C1121.24774,-264.930694 1128.63214,-257.543669 1137.74059,-257.543669 C1146.84905,-257.543669 1154.23345,-264.930694 1154.23345,-274.042385 L1154.23345,-298.13051 C1154.26277,-298.532345 1154.29503,-298.932714 1154.29503,-299.340415 L1154.29503,-309.239645 C1154.29503,-318.352802 1161.67796,-325.738361 1170.78789,-325.738361 C1179.10322,-325.738361 1185.96278,-319.575907 1187.09749,-311.569997 L1187.09749,-140.281063 Z M1056.37582,-224.974471 L1056.37582,-223.629642 L1056.37582,-65.1569109 C1054.79104,-57.7009579 1048.17484,-52.1045935 1040.24947,-52.1045935 C1031.14102,-52.1045935 1023.75661,-59.4916185 1023.75661,-68.6033093 L1023.75661,-209.330755 L1023.75661,-210.675584 L1023.75661,-245.444611 C1023.75661,-254.557768 1031.14102,-261.943326 1040.24947,-261.943326 C1048.17484,-261.943326 1054.79104,-256.348429 1056.37582,-248.892476 L1056.37582,-224.974471 Z M990.770896,-210.675584 L990.770896,-209.330755 L990.770896,-203.763722 C989.637653,-195.757812 982.77809,-189.593891 974.461291,-189.593891 C965.909927,-189.593891 958.878838,-196.105385 958.051996,-204.442736 C957.999219,-203.900111 957.968432,-203.350154 957.968432,-202.792864 L957.968432,-269.521003 C957.968432,-270.314408 957.893665,-271.087281 957.785178,-271.851355 L957.785178,-367.40605 C957.893665,-368.168658 957.968432,-368.942998 957.968432,-369.734936 L957.968432,-379.634165 C957.968432,-388.747323 965.352835,-396.132881 974.461291,-396.132881 C982.77809,-396.132881 989.637653,-389.970427 990.770896,-381.964517 L990.770896,-210.675584 Z M924.982714,-105.762817 C924.874228,-105.001676 924.79946,-104.227336 924.79946,-103.433931 L924.79946,-34.8726015 C924.79946,-25.7609108 917.415058,-18.3738858 908.306602,-18.3738858 C901.27258,-18.3738858 895.28384,-22.7852757 892.913267,-28.9887929 L892.913267,-153.235122 L892.913267,-154.57995 L892.913267,-221.632198 C895.28384,-227.834248 901.27258,-232.245638 908.306602,-232.245638 C917.415058,-232.245638 924.79946,-224.86008 924.79946,-215.746922 L924.79946,-203.647864 C924.79946,-202.855926 924.874228,-202.081586 924.982714,-201.318979 L924.982714,-105.762817 Z M859.927549,-154.57995 L859.927549,-153.235122 L859.927549,5.23760963 C858.342768,12.6935626 851.726566,18.289927 843.801198,18.289927 C834.692742,18.289927 827.308339,10.902902 827.308339,1.79121124 L827.308339,-138.936235 L827.308339,-140.281063 L827.308339,-175.05009 C827.308339,-184.163247 834.692742,-191.548806 843.801198,-191.548806 C851.726566,-191.548806 858.342768,-185.953908 859.927549,-178.497955 L859.927549,-154.57995 Z M1530.51546,-257.543669 C1539.62392,-257.543669 1547.00832,-264.930694 1547.00832,-274.042385 L1547.00832,-460.294553 C1547.00832,-469.407711 1539.62392,-476.793269 1530.51546,-476.793269 C1521.40554,-476.793269 1514.02261,-469.407711 1514.02261,-460.294553 L1514.02261,-391.733224 C1514.02261,-382.621533 1506.6382,-375.234508 1497.52975,-375.234508 C1490.49573,-375.234508 1484.50698,-379.647364 1482.13641,-385.849415 L1482.13641,-511.440572 C1482.13641,-520.553729 1474.75201,-527.939288 1465.64355,-527.939288 C1456.53363,-527.939288 1449.15069,-520.553729 1449.15069,-511.440572 L1449.15069,-351.623012 C1447.56445,-344.167059 1440.94971,-338.570695 1433.02434,-338.570695 C1423.91442,-338.570695 1416.53148,-345.95772 1416.53148,-355.069411 L1416.53148,-497.141685 C1416.53148,-506.254843 1409.14708,-513.640401 1400.03862,-513.640401 C1390.9287,-513.640401 1383.54577,-506.254843 1383.54577,-497.141685 L1383.54577,-490.23129 C1382.41252,-482.223913 1375.55296,-476.059993 1367.23616,-476.059993 C1358.68333,-476.059993 1351.65371,-482.572953 1350.82687,-490.908837 C1350.77262,-490.366213 1350.7433,-489.816255 1350.7433,-489.258965 L1350.7433,-555.987105 C1350.7433,-565.100262 1343.3589,-572.48582 1334.25044,-572.48582 C1325.14052,-572.48582 1317.75758,-565.100262 1317.75758,-555.987105 L1317.75758,-392.230385 C1317.6491,-391.467778 1317.57433,-390.693438 1317.57433,-389.900033 L1317.57433,-321.338703 C1317.57433,-312.227012 1310.18993,-304.839987 1301.08147,-304.839987 C1294.04745,-304.839987 1288.05871,-309.252844 1285.68814,-315.454894 L1285.68814,-441.046052 C1285.68814,-450.159209 1278.30373,-457.544767 1269.19528,-457.544767 C1260.08535,-457.544767 1252.70242,-450.159209 1252.70242,-441.046052 L1252.70242,-281.228492 C1251.11617,-273.772539 1244.50144,-268.176175 1236.57607,-268.176175 C1227.46615,-268.176175 1220.08321,-275.5632 1220.08321,-284.67489 L1220.08321,-426.747165 C1220.08321,-435.860322 1212.69881,-443.24588 1203.59035,-443.24588 C1194.48043,-443.24588 1187.09749,-435.860322 1187.09749,-426.747165 L1187.09749,-419.836769 C1185.96425,-411.829393 1179.10468,-405.665472 1170.78789,-405.665472 C1162.23506,-405.665472 1155.20543,-412.178432 1154.37859,-420.514317 C1154.32435,-419.971692 1154.29503,-419.421735 1154.29503,-418.864445 L1154.29503,-485.592584 C1154.29503,-494.705741 1146.91062,-502.0913 1137.80217,-502.0913 C1128.69225,-502.0913 1121.30931,-494.705741 1121.30931,-485.592584 L1121.30931,-461.505926 C1121.27852,-461.10409 1121.24774,-460.703722 1121.24774,-460.294553 L1121.24774,-391.733224 C1121.24774,-382.621533 1113.86333,-375.234508 1104.75488,-375.234508 C1097.72086,-375.234508 1091.73212,-379.647364 1089.36154,-385.849415 L1089.36154,-511.440572 C1089.36154,-520.553729 1081.97714,-527.939288 1072.86868,-527.939288 C1063.76023,-527.939288 1056.37582,-520.553729 1056.37582,-511.440572 L1056.37582,-351.623012 C1054.79104,-344.167059 1048.17484,-338.570695 1040.24947,-338.570695 C1031.14102,-338.570695 1023.75661,-345.95772 1023.75661,-355.069411 L1023.75661,-497.141685 C1023.75661,-506.254843 1016.37221,-513.640401 1007.26376,-513.640401 C998.155299,-513.640401 990.770896,-506.254843 990.770896,-497.141685 L990.770896,-490.23129 C989.637653,-482.223913 982.77809,-476.059993 974.461291,-476.059993 C965.909927,-476.059993 958.878838,-482.572953 958.051996,-490.908837 C957.999219,-490.366213 957.968432,-489.816255 957.968432,-489.258965 L957.968432,-555.987105 C957.968432,-565.100262 950.58403,-572.48582 941.475573,-572.48582 C932.367117,-572.48582 924.982714,-565.100262 924.982714,-555.987105 L924.982714,-392.230385 C924.874228,-391.467778 924.79946,-390.693438 924.79946,-389.900033 L924.79946,-321.338703 C924.79946,-312.227012 917.415058,-304.839987 908.306602,-304.839987 C901.27258,-304.839987 895.28384,-309.252844 892.913267,-315.454894 L892.913267,-441.046052 C892.913267,-450.159209 885.528864,-457.544767 876.420408,-457.544767 C867.311951,-457.544767 859.927549,-450.159209 859.927549,-441.046052 L859.927549,-281.228492 C858.342768,-273.772539 851.726566,-268.176175 843.801198,-268.176175 C834.692742,-268.176175 827.308339,-275.5632 827.308339,-284.67489 L827.308339,-426.747165 C827.308339,-435.860322 819.923936,-443.24588 810.81548,-443.24588 C801.707024,-443.24588 794.322621,-435.860322 794.322621,-426.747165 L794.322621,-419.836769 C793.189378,-411.829393 786.329815,-405.665472 778.013016,-405.665472 C769.461652,-405.665472 762.432029,-412.178432 761.603721,-420.514317 C761.549478,-419.971692 761.520157,-419.421735 761.520157,-418.864445 L761.520157,-485.592584 C761.520157,-494.705741 754.135754,-502.0913 745.027298,-502.0913 C735.918842,-502.0913 728.534439,-494.705741 728.534439,-485.592584 L728.534439,-299.340415 C728.534439,-290.228725 735.918842,-282.8417 745.027298,-282.8417 C754.135754,-282.8417 761.520157,-290.228725 761.520157,-299.340415 L761.520157,-309.239645 C761.520157,-318.352802 768.90456,-325.738361 778.013016,-325.738361 C786.328349,-325.738361 793.187912,-319.575907 794.322621,-311.569997 L794.322621,-140.281063 L794.322621,-138.936235 L794.322621,-133.369201 C793.189378,-125.363291 786.329815,-119.199371 778.013016,-119.199371 C769.461652,-119.199371 762.432029,-125.710864 761.603721,-134.048215 C761.549478,-133.505591 761.520157,-132.955633 761.520157,-132.398343 L761.520157,-199.126483 C761.520157,-208.238173 754.135754,-215.625198 745.027298,-215.625198 C735.918842,-215.625198 728.534439,-208.238173 728.534439,-199.126483 L728.534439,-12.8743139 C728.534439,-3.76262312 735.918842,3.62440187 745.027298,3.62440187 C754.135754,3.62440187 761.520157,-3.76262312 761.520157,-12.8743139 L761.520157,-22.7735433 C761.520157,-31.8852341 768.90456,-39.2722591 778.013016,-39.2722591 C786.328349,-39.2722591 793.187912,-33.1083389 794.322621,-25.1024287 L794.322621,147.529867 C794.322621,156.641558 801.707024,164.028583 810.81548,164.028583 C819.923936,164.028583 827.308339,156.641558 827.308339,147.529867 L827.308339,111.416011 C827.308339,102.304321 834.692742,94.9172956 843.801198,94.9172956 C851.726566,94.9172956 858.342768,100.512193 859.927549,107.968146 L859.927549,133.23098 C859.927549,142.342671 867.311951,149.729696 876.420408,149.729696 C885.528864,149.729696 892.913267,142.342671 892.913267,133.23098 L892.913267,64.833904 C895.28384,58.6318534 901.27258,54.2204635 908.306602,54.2204635 C917.415058,54.2204635 924.79946,61.6074885 924.79946,70.7191792 L924.79946,82.8182374 C924.79946,91.9299282 932.183863,99.3169532 941.292319,99.3169532 C950.400776,99.3169532 957.785178,91.9299282 957.785178,82.8182374 L957.785178,-80.939949 C957.893665,-81.7025563 957.968432,-82.4754295 957.968432,-83.2688344 L957.968432,-93.1680638 C957.968432,-102.279755 965.352835,-109.66678 974.461291,-109.66678 C982.77809,-109.66678 989.637653,-103.502859 990.770896,-95.4969492 L990.770896,77.1353465 C990.770896,86.2470372 998.155299,93.6340622 1007.26376,93.6340622 C1016.37221,93.6340622 1023.75661,86.2470372 1023.75661,77.1353465 L1023.75661,41.0214909 C1023.75661,31.9098001 1031.14102,24.5227751 1040.24947,24.5227751 C1048.17484,24.5227751 1054.79104,30.117673 1056.37582,37.5736259 L1056.37582,62.8364595 C1056.37582,71.9481502 1063.76023,79.3351752 1072.86868,79.3351752 C1081.97714,79.3351752 1089.36154,71.9481502 1089.36154,62.8364595 L1089.36154,-5.5606165 C1091.73212,-11.7626671 1097.72086,-16.174057 1104.75488,-16.174057 C1113.86333,-16.174057 1121.24774,-8.78703202 1121.24774,0.324658725 L1121.24774,12.4237169 C1121.24774,21.5354077 1128.63214,28.9224327 1137.74059,28.9224327 C1146.84905,28.9224327 1154.23345,21.5354077 1154.23345,12.4237169 L1154.23345,-11.664408 C1154.26277,-12.0662434 1154.29503,-12.4651457 1154.29503,-12.8743139 L1154.29503,-22.7735433 C1154.29503,-31.8852341 1161.67796,-39.2722591 1170.78789,-39.2722591 C1179.10322,-39.2722591 1185.96278,-33.1083389 1187.09749,-25.1024287 L1187.09749,147.529867 C1187.09749,156.641558 1194.48043,164.028583 1203.59035,164.028583 C1212.69881,164.028583 1220.08321,156.641558 1220.08321,147.529867 L1220.08321,111.416011 C1220.08321,102.304321 1227.46615,94.9172956 1236.57607,94.9172956 C1244.50144,94.9172956 1251.11617,100.512193 1252.70242,107.968146 L1252.70242,133.23098 C1252.70242,142.342671 1260.08535,149.729696 1269.19528,149.729696 C1278.30373,149.729696 1285.68814,142.342671 1285.68814,133.23098 L1285.68814,64.833904 C1288.05871,58.6318534 1294.04745,54.2204635 1301.08147,54.2204635 C1310.18993,54.2204635 1317.57433,61.6074885 1317.57433,70.7191792 L1317.57433,82.8182374 C1317.57433,91.9299282 1324.95727,99.3169532 1334.06719,99.3169532 C1343.17565,99.3169532 1350.56005,91.9299282 1350.56005,82.8182374 L1350.56005,-80.939949 C1350.66707,-81.7025563 1350.7433,-82.4754295 1350.7433,-83.2688344 L1350.7433,-93.1680638 C1350.7433,-102.279755 1358.12624,-109.66678 1367.23616,-109.66678 C1375.55149,-109.66678 1382.41106,-103.502859 1383.54577,-95.4969492 L1383.54577,77.1353465 C1383.54577,86.2470372 1390.9287,93.6340622 1400.03862,93.6340622 C1409.14708,93.6340622 1416.53148,86.2470372 1416.53148,77.1353465 L1416.53148,41.0214909 C1416.53148,31.9098001 1423.91442,24.5227751 1433.02434,24.5227751 C1440.94971,24.5227751 1447.56445,30.117673 1449.15069,37.5736259 L1449.15069,62.8364595 C1449.15069,71.9481502 1456.53363,79.3351752 1465.64355,79.3351752 C1474.75201,79.3351752 1482.13641,71.9481502 1482.13641,62.8364595 L1482.13641,-5.5606165 C1484.50698,-11.7626671 1490.49573,-16.174057 1497.52975,-16.174057 C1506.6382,-16.174057 1514.02261,-8.78703202 1514.02261,0.324658725 L1514.02261,12.4237169 C1514.02261,21.5354077 1521.40554,28.9224327 1530.51546,28.9224327 C1539.62392,28.9224327 1547.00832,21.5354077 1547.00832,12.4237169 L1547.00832,-173.828452 C1547.00832,-182.940143 1539.62392,-190.327168 1530.51546,-190.327168 C1521.40554,-190.327168 1514.02261,-182.940143 1514.02261,-173.828452 L1514.02261,-105.267122 C1514.02261,-96.1554313 1506.6382,-88.7684063 1497.52975,-88.7684063 C1490.49573,-88.7684063 1484.50698,-93.1797962 1482.13641,-99.3833133 L1482.13641,-223.629642 L1482.13641,-224.974471 L1482.13641,-292.026718 C1484.50698,-298.228769 1490.49573,-302.640159 1497.52975,-302.640159 C1506.6382,-302.640159 1514.02261,-295.2546 1514.02261,-286.141443 L1514.02261,-274.042385 C1514.02261,-264.930694 1521.40554,-257.543669 1530.51546,-257.543669 L1530.51546,-257.543669 Z" id="Mask-Copy-2" fill-opacity="0.300000012" fill="#FFFFFF" opacity="0.300000012" mask="url(#mask-2)" transform="translate(1137.771381, -204.228619) rotate(-45.000000) translate(-1137.771381, 204.228619) "></path>
            </g>
        </g>
    </g>
</svg>
