<?xml version="1.0" encoding="UTF-8"?>
<svg width="1308px" height="1297px" viewBox="0 0 1308 1297" version="1.1" xmlns="http://www.w3.org/2000/svg" xmlns:xlink="http://www.w3.org/1999/xlink">
    <!-- Generator: Sketch 45.2 (43514) - http://www.bohemiancoding.com/sketch -->
    <title>Dashboard_Car@1.5x</title>
    <desc>Created with Sketch.</desc>
    <defs>
        <path d="M145.287772,105.02194 L145.287772,30.1624414 C145.287772,-9.89175209 13.4987938,-10.216215 13.4987938,30.1624414 L13.4987938,105.02194 L13.4987938,184.605939 C13.4987938,227.515381 145.287772,227.170582 145.287772,184.605939 L145.287772,105.02194 Z" id="path-1"></path>
        <filter x="-0.8%" y="-0.5%" width="103.0%" height="101.8%" filterUnits="objectBoundingBox" id="filter-2">
            <feOffset dx="2" dy="2" in="SourceAlpha" result="shadowOffsetOuter1"></feOffset>
            <feComposite in="shadowOffsetOuter1" in2="SourceAlpha" operator="out" result="shadowOffsetOuter1"></feComposite>
            <feColorMatrix values="0 0 0 0 0.835294118   0 0 0 0 0.192156863   0 0 0 0 0.2  0 0 0 1 0" type="matrix" in="shadowOffsetOuter1"></feColorMatrix>
        </filter>
        <path d="M129.186938,136.216897 L129.186938,97.3657693 C129.186938,68.7537305 35.0456996,68.5219559 35.0456996,97.3657693 L35.0456996,136.216897 L35.0456996,175.068025 C35.0456996,203.911838 129.186938,203.680064 129.186938,175.068025 L129.186938,136.216897 Z" id="path-3"></path>
        <path d="M125.90491,132.931708 L125.90491,94.0805806 C125.90491,65.4685418 31.7636713,65.2367673 31.7636713,94.0805806 L31.7636713,132.931708 L31.7636713,171.782836 C31.7636713,200.62665 125.90491,200.394875 125.90491,171.782836 L125.90491,132.931708 Z" id="path-4"></path>
        <ellipse id="path-5" cx="57.0561681" cy="113.418446" rx="13.402269" ry="13.3022378"></ellipse>
        <filter x="-3.7%" y="-3.8%" width="114.9%" height="115.0%" filterUnits="objectBoundingBox" id="filter-6">
            <feOffset dx="2" dy="2" in="SourceAlpha" result="shadowOffsetOuter1"></feOffset>
            <feColorMatrix values="0 0 0 0 0.835294118   0 0 0 0 0.192156863   0 0 0 0 0.2  0 0 0 1 0" type="matrix" in="shadowOffsetOuter1"></feColorMatrix>
        </filter>
        <ellipse id="path-7" cx="100.613542" cy="113.418446" rx="13.402269" ry="13.3022378"></ellipse>
        <filter x="-3.7%" y="-3.8%" width="114.9%" height="115.0%" filterUnits="objectBoundingBox" id="filter-8">
            <feOffset dx="2" dy="2" in="SourceAlpha" result="shadowOffsetOuter1"></feOffset>
            <feColorMatrix values="0 0 0 0 0.835294118   0 0 0 0 0.192156863   0 0 0 0 0.2  0 0 0 1 0" type="matrix" in="shadowOffsetOuter1"></feColorMatrix>
        </filter>
        <ellipse id="path-9" cx="57.0561681" cy="152.21664" rx="13.402269" ry="13.3022378"></ellipse>
        <filter x="-3.7%" y="-3.8%" width="114.9%" height="115.0%" filterUnits="objectBoundingBox" id="filter-10">
            <feOffset dx="2" dy="2" in="SourceAlpha" result="shadowOffsetOuter1"></feOffset>
            <feComposite in="shadowOffsetOuter1" in2="SourceAlpha" operator="out" result="shadowOffsetOuter1"></feComposite>
            <feColorMatrix values="0 0 0 0 0.835294118   0 0 0 0 0.192156863   0 0 0 0 0.2  0 0 0 1 0" type="matrix" in="shadowOffsetOuter1"></feColorMatrix>
        </filter>
        <ellipse id="path-11" cx="100.613542" cy="152.21664" rx="13.402269" ry="13.3022378"></ellipse>
        <filter x="-3.7%" y="-3.8%" width="114.9%" height="115.0%" filterUnits="objectBoundingBox" id="filter-12">
            <feOffset dx="2" dy="2" in="SourceAlpha" result="shadowOffsetOuter1"></feOffset>
            <feComposite in="shadowOffsetOuter1" in2="SourceAlpha" operator="out" result="shadowOffsetOuter1"></feComposite>
            <feColorMatrix values="0 0 0 0 0.835294118   0 0 0 0 0.192156863   0 0 0 0 0.2  0 0 0 1 0" type="matrix" in="shadowOffsetOuter1"></feColorMatrix>
        </filter>
        <rect id="path-13" x="152.845763" y="48.774872" width="5.9328973" height="43.2322729" rx="2"></rect>
        <filter x="-16.9%" y="-2.3%" width="167.4%" height="109.3%" filterUnits="objectBoundingBox" id="filter-14">
            <feOffset dx="2" dy="2" in="SourceAlpha" result="shadowOffsetOuter1"></feOffset>
            <feComposite in="shadowOffsetOuter1" in2="SourceAlpha" operator="out" result="shadowOffsetOuter1"></feComposite>
            <feColorMatrix values="0 0 0 0 0.835294118   0 0 0 0 0.192156863   0 0 0 0 0.2  0 0 0 1 0" type="matrix" in="shadowOffsetOuter1"></feColorMatrix>
        </filter>
        <rect id="path-15" x="152.845763" y="144.372657" width="5.9328973" height="43.2322729" rx="2"></rect>
        <filter x="-16.9%" y="-2.3%" width="167.4%" height="109.3%" filterUnits="objectBoundingBox" id="filter-16">
            <feOffset dx="2" dy="2" in="SourceAlpha" result="shadowOffsetOuter1"></feOffset>
            <feComposite in="shadowOffsetOuter1" in2="SourceAlpha" operator="out" result="shadowOffsetOuter1"></feComposite>
            <feColorMatrix values="0 0 0 0 0.835294118   0 0 0 0 0.192156863   0 0 0 0 0.2  0 0 0 1 0" type="matrix" in="shadowOffsetOuter1"></feColorMatrix>
        </filter>
        <rect id="path-17" x="0.13298617" y="48.774872" width="5.9328973" height="43.2322729" rx="2"></rect>
        <filter x="-16.9%" y="-2.3%" width="167.4%" height="109.3%" filterUnits="objectBoundingBox" id="filter-18">
            <feOffset dx="2" dy="2" in="SourceAlpha" result="shadowOffsetOuter1"></feOffset>
            <feComposite in="shadowOffsetOuter1" in2="SourceAlpha" operator="out" result="shadowOffsetOuter1"></feComposite>
            <feColorMatrix values="0 0 0 0 0.835294118   0 0 0 0 0.192156863   0 0 0 0 0.2  0 0 0 1 0" type="matrix" in="shadowOffsetOuter1"></feColorMatrix>
        </filter>
        <rect id="path-19" x="0.13298617" y="144.372657" width="5.9328973" height="43.2322729" rx="2"></rect>
        <filter x="-16.9%" y="-2.3%" width="167.4%" height="109.3%" filterUnits="objectBoundingBox" id="filter-20">
            <feOffset dx="2" dy="2" in="SourceAlpha" result="shadowOffsetOuter1"></feOffset>
            <feComposite in="shadowOffsetOuter1" in2="SourceAlpha" operator="out" result="shadowOffsetOuter1"></feComposite>
            <feColorMatrix values="0 0 0 0 0.835294118   0 0 0 0 0.192156863   0 0 0 0 0.2  0 0 0 1 0" type="matrix" in="shadowOffsetOuter1"></feColorMatrix>
        </filter>
    </defs>
    <g id="Assets" stroke="none" stroke-width="1" fill="none" fill-rule="evenodd">
        <g transform="translate(-2433.000000, -1939.000000)" id="Dashboard_Car">
            <g transform="translate(2322.000000, 1645.000000)">
                <g id="Car" transform="translate(1201.446125, 404.444254) rotate(38.000000) translate(-1201.446125, -404.444254) translate(1121.946125, 295.944254)">
                    <g id="Combined-Shape">
                        <use fill="black" fill-opacity="1" filter="url(#filter-2)" xlink:href="#path-1"></use>
                        <use fill="#FC7475" fill-rule="evenodd" xlink:href="#path-1"></use>
                        <path stroke="#FFFFFF" stroke-width="4" d="M143.287772,184.605939 L143.287772,30.1624414 C143.287772,13.3930341 115.424011,2.04447783 79.3908211,2.00012119 C43.308116,1.9557036 15.4987938,13.2592652 15.4987938,30.1624414 L15.4987938,184.605939 C15.4987938,202.701794 43.2898878,214.705948 79.3906668,214.658723 C115.442256,214.611562 143.287772,202.559617 143.287772,184.605939 Z"></path>
                    </g>
                    <path d="M31.9301047,70.818001 C31.9301047,42.0365983 125.867645,42.2678714 125.867645,70.818001 L125.867645,124.54746 L31.9301047,124.54746 L31.9301047,70.818001 Z" id="Combined-Shape" fill="#FFFFFF"></path>
                    <g id="Combined-Shape">
                        <use fill="#FC7475" fill-rule="evenodd" xlink:href="#path-3"></use>
                        <path stroke="#D53133" stroke-width="3" d="M130.686938,97.3657693 L130.686938,175.068025 C130.686938,189.383348 109.333169,198.080467 82.1181652,198.113968 C54.867315,198.147514 33.5456996,189.480989 33.5456996,175.068025 L33.5456996,97.3657693 C33.5456996,82.9528055 54.867315,74.2862802 82.1181652,74.3198258 C109.333169,74.3533274 130.686938,83.0504463 130.686938,97.3657693 Z"></path>
                    </g>
                    <g id="Combined-Shape">
                        <use fill="#FC7475" fill-rule="evenodd" xlink:href="#path-4"></use>
                        <path stroke="#FFFFFF" stroke-width="3" d="M127.40491,94.0805806 L127.40491,171.782836 C127.40491,186.098159 106.05114,194.795278 78.8361369,194.82878 C51.5852867,194.862325 30.2636713,186.1958 30.2636713,171.782836 L30.2636713,94.0805806 C30.2636713,79.6676168 51.5852867,71.0010916 78.8361369,71.0346372 C106.05114,71.0681387 127.40491,79.7652576 127.40491,94.0805806 Z"></path>
                    </g>
                    <g id="Oval-2">
                        <use fill="black" fill-opacity="1" filter="url(#filter-6)" xlink:href="#path-5"></use>
                        <use fill="#FFFFFF" fill-rule="evenodd" xlink:href="#path-5"></use>
                    </g>
                    <g id="Oval-2-Copy-8">
                        <use fill="black" fill-opacity="1" filter="url(#filter-8)" xlink:href="#path-7"></use>
                        <use fill="#FFFFFF" fill-rule="evenodd" xlink:href="#path-7"></use>
                    </g>
                    <g id="Oval-2-Copy-9">
                        <use fill="black" fill-opacity="1" filter="url(#filter-10)" xlink:href="#path-9"></use>
                        <use fill="#FC7475" fill-rule="evenodd" xlink:href="#path-9"></use>
                        <ellipse stroke="#FFFFFF" stroke-width="3" cx="57.0561681" cy="152.21664" rx="11.902269" ry="11.8022378"></ellipse>
                    </g>
                    <g id="Oval-2-Copy-10">
                        <use fill="black" fill-opacity="1" filter="url(#filter-12)" xlink:href="#path-11"></use>
                        <use fill="#FC7475" fill-rule="evenodd" xlink:href="#path-11"></use>
                        <ellipse stroke="#FFFFFF" stroke-width="3" cx="100.613542" cy="152.21664" rx="11.902269" ry="11.8022378"></ellipse>
                    </g>
                    <g id="Rectangle-2">
                        <use fill="black" fill-opacity="1" filter="url(#filter-14)" xlink:href="#path-13"></use>
                        <use fill="#FC7475" fill-rule="evenodd" xlink:href="#path-13"></use>
                        <rect stroke="#FFFFFF" stroke-width="3" x="154.345763" y="50.274872" width="2.9328973" height="40.2322729" rx="1.46644865"></rect>
                    </g>
                    <g id="Rectangle-2-Copy">
                        <use fill="black" fill-opacity="1" filter="url(#filter-16)" xlink:href="#path-15"></use>
                        <use fill="#FC7475" fill-rule="evenodd" xlink:href="#path-15"></use>
                        <rect stroke="#FFFFFF" stroke-width="3" x="154.345763" y="145.872657" width="2.9328973" height="40.2322729" rx="1.46644865"></rect>
                    </g>
                    <g id="Rectangle-2">
                        <use fill="black" fill-opacity="1" filter="url(#filter-18)" xlink:href="#path-17"></use>
                        <use fill="#FC7475" fill-rule="evenodd" xlink:href="#path-17"></use>
                        <rect stroke="#FFFFFF" stroke-width="3" x="1.63298617" y="50.274872" width="2.9328973" height="40.2322729" rx="1.46644865"></rect>
                    </g>
                    <g id="Rectangle-2-Copy">
                        <use fill="black" fill-opacity="1" filter="url(#filter-20)" xlink:href="#path-19"></use>
                        <use fill="#FC7475" fill-rule="evenodd" xlink:href="#path-19"></use>
                        <rect stroke="#FFFFFF" stroke-width="3" x="1.63298617" y="145.872657" width="2.9328973" height="40.2322729" rx="1.46644865"></rect>
                    </g>
                </g>
                <path d="M983.924251,1380.93182 C942.345852,1240.34428 812.235785,1137.76412 658.166837,1137.76412 C587.743914,1137.76412 533.511929,1173.12013 468.08176,1195.89329 C58.1431222,1338.57369 -44.0926019,863.007447 218.91865,554.426814 C473.034579,256.282709 727.51973,463.652317 1048.60441,713.380294 C1360.41071,947.429651 1548.41167,579.585113 1573.20334,542.829962" id="Behind" stroke="#FFFFFF" stroke-width="3" stroke-linecap="round" stroke-dasharray="11" transform="translate(823.635425, 894.111773) rotate(-124.000000) translate(-823.635425, -894.111773) "></path>
            </g>
        </g>
    </g>
</svg>