<svg xmlns="http://www.w3.org/2000/svg" width="35" height="22" viewBox="0 0 35 22">
    <g fill="#FFF" fill-rule="nonzero">
        <path d="M12.26 13.272h5.459c-.958 2.66-3.554 4.565-6.592 4.543-3.687-.026-6.735-2.92-6.878-6.536-.154-3.875 3.014-7.076 6.93-7.076 1.79 0 3.424.67 4.656 1.766a.763.763 0 0 0 1.023-.003l2.005-1.852a.726.726 0 0 0 .002-1.07A11.248 11.248 0 0 0 11.4.041C5.238-.077.043 4.88.001 10.93-.044 17.026 4.977 21.98 11.178 21.98c5.963 0 10.834-4.582 11.16-10.354.009-.072.015-2.518.015-2.518H12.26c-.414 0-.75.33-.75.736v2.693c0 .406.336.735.75.735zM31.604 9.353V6.721a.65.65 0 0 0-.656-.644H28.69a.65.65 0 0 0-.656.644v2.632h-2.682a.65.65 0 0 0-.657.644v2.215a.65.65 0 0 0 .657.645h2.682v2.632a.65.65 0 0 0 .656.644h2.258a.65.65 0 0 0 .656-.644v-2.632h2.682a.65.65 0 0 0 .657-.645V9.997a.65.65 0 0 0-.657-.644h-2.682z"/>
    </g>
</svg>
